<svg xmlns="http://www.w3.org/2000/svg" viewBox="0 0 100 100" width="200px" height="200px"><circle cx="77" cy="13" r="1" fill="#f1bc19"/><circle cx="50" cy="50" r="37" fill="#e4e4f9"/><circle cx="83" cy="15" r="4" fill="#f1bc19"/><circle cx="87" cy="24" r="2" fill="#8889b9"/><circle cx="81" cy="76" r="2" fill="#fbcd59"/><circle cx="15" cy="63" r="4" fill="#fbcd59"/><circle cx="25" cy="87" r="2" fill="#8889b9"/><circle cx="18.5" cy="51.5" r="2.5" fill="#fff"/><circle cx="79.5" cy="33.5" r="1.5" fill="#fff"/><path fill="#ef9922" d="M26.7,45.3v-9.984c0-2.545,1.884-4.615,4.2-4.615h11.118c0.531,0,1.034,0.229,1.415,0.643 l4.101,4.464c0.133,0.145,0.319,0.227,0.516,0.227h22.033c2.325,0,4.217,2.078,4.217,4.634V45.3H26.7z"/><path fill="#472b29" d="M42.018,31.4c0.333,0,0.653,0.148,0.9,0.417l4.101,4.464c0.265,0.289,0.639,0.453,1.031,0.453 h22.033c1.939,0,3.517,1.765,3.517,3.933V44.6H27.4v-9.285c0-2.159,1.57-3.916,3.5-3.916H42.018 M42.018,30H30.9 c-2.695,0-4.9,2.392-4.9,5.315V46h49v-5.333c0-2.933-2.213-5.333-4.917-5.333H48.05l-4.101-4.464 C43.437,30.313,42.743,30,42.018,30L42.018,30z"/><path fill="#fbcd59" d="M30.9,68.3c-2.316,0-4.2-1.865-4.2-4.157V39.857c0-2.292,1.884-4.157,4.2-4.157H70.1 c2.316,0,4.2,1.865,4.2,4.157v24.285c0,2.292-1.884,4.157-4.2,4.157H30.9z"/><path fill="#472b29" d="M70.1,36.4c1.93,0,3.5,1.551,3.5,3.457v24.286c0,1.906-1.57,3.457-3.5,3.457H30.9 c-1.93,0-3.5-1.551-3.5-3.457V39.857c0-1.906,1.57-3.457,3.5-3.457H70.1 M70.1,35H30.9c-2.695,0-4.9,2.186-4.9,4.857v24.286 C26,66.814,28.205,69,30.9,69h39.2c2.695,0,4.9-2.186,4.9-4.857V39.857C75,37.186,72.795,35,70.1,35L70.1,35z"/><polygon fill="#00a5a5" points="41.061,61.061 38.939,58.939 45.879,52 38.939,45.061 41.061,42.939 50.121,52"/><rect width="12" height="3" x="50.5" y="58.458" fill="#00a5a5"/><g><path fill="#472b29" d="M41.061,61.311c-0.064,0-0.128-0.024-0.177-0.073l-2.121-2.121c-0.098-0.098-0.098-0.256,0-0.354 L45.525,52l-4.106-4.106c-0.098-0.098-0.098-0.256,0-0.354s0.256-0.098,0.354,0l4.283,4.283c0.098,0.098,0.098,0.256,0,0.354 l-6.763,6.763l1.768,1.768l1.792-1.792c0.098-0.098,0.256-0.098,0.354,0s0.098,0.256,0,0.354l-1.969,1.969 C41.188,61.286,41.125,61.311,41.061,61.311z"/></g><g><path fill="#472b29" d="M44.686,57.686c-0.064,0-0.128-0.024-0.177-0.073c-0.098-0.098-0.098-0.256,0-0.354L49.768,52 l-1.665-1.665c-0.098-0.098-0.098-0.256,0-0.354s0.256-0.098,0.354,0l1.842,1.842c0.098,0.098,0.098,0.256,0,0.354l-5.436,5.436 C44.813,57.661,44.75,57.686,44.686,57.686z"/></g><g><path fill="#472b29" d="M46.654,48.783c-0.064,0-0.128-0.024-0.177-0.073l-5.417-5.417l-1.768,1.768l0.886,0.886 c0.098,0.098,0.098,0.256,0,0.354s-0.256,0.098-0.354,0l-1.063-1.063c-0.098-0.098-0.098-0.256,0-0.354l2.121-2.121 c0.098-0.098,0.256-0.098,0.354,0l5.594,5.594c0.098,0.098,0.098,0.256,0,0.354C46.782,48.759,46.719,48.783,46.654,48.783z"/></g><g><path fill="#472b29" d="M58.813,58.75H54.75c-0.138,0-0.25-0.112-0.25-0.25s0.112-0.25,0.25-0.25h4.063 c0.138,0,0.25,0.112,0.25,0.25S58.95,58.75,58.813,58.75z"/></g><g><path fill="#472b29" d="M62.5,61.75h-12c-0.138,0-0.25-0.112-0.25-0.25v-3c0-0.138,0.112-0.25,0.25-0.25h2.063 c0.138,0,0.25,0.112,0.25,0.25s-0.112,0.25-0.25,0.25H50.75v2.5h11.5v-2.5h-1.438c-0.138,0-0.25-0.112-0.25-0.25 s0.112-0.25,0.25-0.25H62.5c0.138,0,0.25,0.112,0.25,0.25v3C62.75,61.638,62.638,61.75,62.5,61.75z"/></g><g><path fill="#472b29" d="M48,38.75h-9c-0.138,0-0.25-0.112-0.25-0.25s0.112-0.25,0.25-0.25h9c0.138,0,0.25,0.112,0.25,0.25 S48.138,38.75,48,38.75z"/></g><g><path fill="#472b29" d="M71.5,56.667c-0.138,0-0.25-0.112-0.25-0.25v-3.334c0-0.138,0.112-0.25,0.25-0.25 s0.25,0.112,0.25,0.25v3.334C71.75,56.555,71.638,56.667,71.5,56.667z"/></g><g><path fill="#472b29" d="M69.958,65.75h-4.625c-0.138,0-0.25-0.112-0.25-0.25s0.112-0.25,0.25-0.25h4.625 c0.713,0,1.292-0.58,1.292-1.292V58.5c0-0.138,0.112-0.25,0.25-0.25s0.25,0.112,0.25,0.25v5.458 C71.75,64.946,70.946,65.75,69.958,65.75z"/></g><g><path fill="#472b29" d="M29.5,51.667c-0.138,0-0.25-0.112-0.25-0.25V47.75c0-0.138,0.112-0.25,0.25-0.25 s0.25,0.112,0.25,0.25v3.667C29.75,51.555,29.638,51.667,29.5,51.667z"/></g><g><path fill="#472b29" d="M29.5,45.833c-0.138,0-0.25-0.112-0.25-0.25v-5.541c0-0.988,0.804-1.792,1.792-1.792h5.541 c0.138,0,0.25,0.112,0.25,0.25s-0.112,0.25-0.25,0.25h-5.541c-0.713,0-1.292,0.579-1.292,1.292v5.541 C29.75,45.721,29.638,45.833,29.5,45.833z"/></g></svg>