<svg xmlns="http://www.w3.org/2000/svg" viewBox="0 0 100 100" width="50px" height="50px"><path fill="#00a5a5" d="M13 27A2 2 0 1 0 13 31A2 2 0 1 0 13 27Z"/><path fill="#f1bc19" d="M77 12A1 1 0 1 0 77 14A1 1 0 1 0 77 12Z"/><path fill="#c0e5e4" d="M50 13A37 37 0 1 0 50 87A37 37 0 1 0 50 13Z"/><path fill="#f1bc19" d="M83 11A4 4 0 1 0 83 19A4 4 0 1 0 83 11Z"/><path fill="#00a5a5" d="M87 22A2 2 0 1 0 87 26A2 2 0 1 0 87 22Z"/><path fill="#fbcd59" d="M81 74A2 2 0 1 0 81 78 2 2 0 1 0 81 74zM15 59A4 4 0 1 0 15 67 4 4 0 1 0 15 59z"/><path fill="#00a5a5" d="M25 85A2 2 0 1 0 25 89A2 2 0 1 0 25 85Z"/><path fill="#fff" d="M18.5 51A2.5 2.5 0 1 0 18.5 56A2.5 2.5 0 1 0 18.5 51Z"/><path fill="#f1bc19" d="M21 66A1 1 0 1 0 21 68A1 1 0 1 0 21 66Z"/><path fill="#fff" d="M80 33A1 1 0 1 0 80 35A1 1 0 1 0 80 33Z"/><g><path fill="#e1e0d8" d="M64.519,71.85H37c-1.571,0-2.85-1.278-2.85-2.85s1.278-2.85,2.85-2.85h27.531l-0.36,0.414 C63.577,67.248,63.25,68.112,63.25,69c0,0.887,0.324,1.753,0.913,2.437L64.519,71.85z"/><path fill="#bd977c" d="M34.15,66.529V31c0-1.572,1.278-2.85,2.85-2.85h26c1.571,0,2.85,1.278,2.85,2.85v34.25H37 c-0.895,0-1.737,0.319-2.437,0.922L34.15,66.529z"/><path fill="#9f8066" d="M43,28.15h-6c-1.571,0-2.85,1.278-2.85,2.85v35.529l0.413-0.356 c0.699-0.604,1.542-0.922,2.437-0.922h6V28.15z"/></g><g><path fill="#472b29" d="M66.599,66.431C66.834,66.394,67,66.181,67,65.944V31c0-2.209-1.791-4-4-4H37c-2.209,0-4,1.791-4,4 v38c0,0.552,0.112,1.078,0.314,1.557c0.202,0.479,0.495,0.91,0.857,1.271c0.181,0.181,0.379,0.345,0.592,0.488 c0.426,0.288,0.909,0.495,1.43,0.602C36.454,72.972,36.724,73,37,73c0.087,0,29.235,0,29.3,0c0.386,0,0.699-0.313,0.7-0.699h0 c0,0,0,0,0-0.001s0,0,0,0c0-0.003-0.002-0.006-0.002-0.009c-0.005-0.375-0.274-0.678-0.639-0.771 C65.235,71.234,64.4,70.213,64.4,69C64.4,67.703,65.355,66.624,66.599,66.431z M37,28.4h26c1.436,0,2.6,1.164,2.6,2.6v34 c0,0-26.57,0-28.6,0c-0.998,0-1.899,0.379-2.6,0.983V31C34.4,29.564,35.564,28.4,37,28.4z M37,71.6c-1.434,0-2.6-1.166-2.6-2.6 s1.166-2.6,2.6-2.6h26.983C63.376,67.098,63,68.001,63,69c0,0.996,0.371,1.9,0.974,2.6H37z"/><path fill="#472b29" d="M42.625 55c-.207 0-.375-.168-.375-.375v-10.25c0-.207.168-.375.375-.375S43 44.168 43 44.375v10.25C43 54.832 42.832 55 42.625 55zM42.625 60c-.207 0-.375-.168-.375-.375v-1.25c0-.207.168-.375.375-.375S43 58.168 43 58.375v1.25C43 59.832 42.832 60 42.625 60zM42.625 63c-.207 0-.375-.168-.375-.375v-1.25c0-.207.168-.375.375-.375S43 61.168 43 61.375v1.25C43 62.832 42.832 63 42.625 63zM63.625 69h-25.25C38.168 69 38 68.832 38 68.625s.168-.375.375-.375h25.25c.207 0 .375.168.375.375S63.832 69 63.625 69zM63.625 70.75h-15.25c-.207 0-.375-.168-.375-.375S48.168 70 48.375 70h15.25C63.832 70 64 70.168 64 70.375S63.832 70.75 63.625 70.75zM46.625 70.75h-1.25c-.207 0-.375-.168-.375-.375S45.168 70 45.375 70h1.25C46.832 70 47 70.168 47 70.375S46.832 70.75 46.625 70.75z"/></g><g><path fill="#ee3e54" d="M38.25 26.25L48.75 26.25 48.75 46.75 43.5 44.375 38.25 46.75z"/><path fill="#472b29" d="M48.625,47c-0.051,0-0.103-0.01-0.15-0.032L43.5,44.785l-4.975,2.184 c-0.115,0.051-0.25,0.04-0.355-0.029C38.063,46.87,38,46.751,38,46.625v-20.25C38,26.168,38.168,26,38.375,26h10.25 C48.832,26,49,26.168,49,26.375v20.25c0,0.126-0.063,0.245-0.17,0.314C48.769,46.979,48.696,47,48.625,47z M43.5,44 c0.052,0,0.103,0.011,0.15,0.032l4.6,2.019V26.75h-9.5v19.301l4.6-2.019C43.397,44.011,43.448,44,43.5,44z"/></g></svg>