<svg xmlns="http://www.w3.org/2000/svg" viewBox="0 0 100 100" width="50px" height="50px"><path fill="#00a5a5" d="M13 27A2 2 0 1 0 13 31A2 2 0 1 0 13 27Z"/><path fill="#f1bc19" d="M77 12A1 1 0 1 0 77 14A1 1 0 1 0 77 12Z"/><path fill="#c0e5e4" d="M50 13A37 37 0 1 0 50 87A37 37 0 1 0 50 13Z"/><path fill="#f1bc19" d="M83 11A4 4 0 1 0 83 19A4 4 0 1 0 83 11Z"/><path fill="#00a5a5" d="M87 22A2 2 0 1 0 87 26A2 2 0 1 0 87 22Z"/><path fill="#fbcd59" d="M81 74A2 2 0 1 0 81 78 2 2 0 1 0 81 74zM15 59A4 4 0 1 0 15 67 4 4 0 1 0 15 59z"/><path fill="#00a5a5" d="M25 85A2 2 0 1 0 25 89A2 2 0 1 0 25 85Z"/><path fill="#fff" d="M18.5 51A2.5 2.5 0 1 0 18.5 56A2.5 2.5 0 1 0 18.5 51Z"/><path fill="#f1bc19" d="M21 66A1 1 0 1 0 21 68A1 1 0 1 0 21 66Z"/><path fill="#fff" d="M80 33A1 1 0 1 0 80 35A1 1 0 1 0 80 33Z"/><g><path fill="#ee3e54" d="M63,27v-0.001l-0.006,45.995l-12.416-8.81C50.405,64.061,50.203,64,50,64s-0.405,0.061-0.579,0.184 L37,72.999V27H63"/><path fill="#472b29" d="M62.6,27.4v44.824l-11.79-8.366C50.568,63.686,50.284,63.6,50,63.6c-0.284,0-0.568,0.086-0.81,0.258 L37.4,72.224V27.4H62.6 M63,26H37c-0.552,0-1,0.447-1,0.999v46C36,73.589,36.485,74,37.004,74c0.197,0,0.399-0.059,0.581-0.19 L50,65l12.416,8.81c0.182,0.131,0.384,0.19,0.581,0.19C63.515,74,64,73.589,64,72.999v-46C64,26.447,63.552,26,63,26L63,26z"/></g><g><path fill="#fbcd59" d="M50 33.5A8.5 8.5 0 1 0 50 50.5A8.5 8.5 0 1 0 50 33.5Z"/><path fill="#472b29" d="M50,34c4.411,0,8,3.589,8,8s-3.589,8-8,8s-8-3.589-8-8S45.589,34,50,34 M50,33 c-4.963,0-9,4.038-9,9s4.037,9,9,9c4.963,0,9-4.038,9-9S54.963,33,50,33L50,33z"/><path fill="#f1bc19" d="M49.999,37.25l0.011,0.007l1.32,2.666l0.058,0.118l0.13,0.019l2.958,0.446l-2.135,2.076 l-0.094,0.092l0.022,0.13l0.486,2.945l-2.64-1.384l-0.116-0.061l-0.116,0.061l-2.657,1.372l0.504-2.933l0.022-0.13l-0.094-0.092 l-2.128-2.094l2.95-0.428l0.13-0.019l0.058-0.118l1.32-2.667C49.991,37.252,49.995,37.25,49.999,37.25"/><path fill="#472b29" d="M49.999,37.799l1.107,2.236l0.117,0.235l0.26,0.038l2.472,0.358l-1.787,1.737l-0.189,0.184 l0.045,0.26l0.423,2.458l-2.214-1.161l-0.232-0.122l-0.232,0.122l-2.212,1.16l0.423-2.458l0.045-0.26l-0.189-0.184l-1.787-1.737 l2.471-0.358l0.26-0.038l0.117-0.235L49.999,37.799 M49.999,37c-0.1,0-0.191,0.056-0.235,0.146l-1.32,2.666l-2.95,0.428 c-0.099,0.015-0.18,0.083-0.212,0.178s-0.005,0.199,0.066,0.268l2.135,2.076l-0.504,2.933c-0.017,0.098,0.024,0.197,0.105,0.255 c0.045,0.033,0.1,0.05,0.154,0.05c0.042,0,0.083-0.009,0.121-0.029l2.64-1.384l2.64,1.384C52.678,45.99,52.72,46,52.762,46 c0.054,0,0.107-0.016,0.152-0.05c0.082-0.059,0.122-0.157,0.105-0.255l-0.504-2.933l2.135-2.076 c0.071-0.07,0.097-0.173,0.066-0.268s-0.113-0.163-0.212-0.178l-2.951-0.428l-1.32-2.666C50.19,37.056,50.099,37,49.999,37 L49.999,37z"/><g><path fill="#472b29" d="M56.513 44c-.021 0-.043-.003-.065-.008-.133-.036-.212-.173-.177-.307C56.423 43.119 56.5 42.552 56.5 42c0-3.509-2.75-6.358-6.259-6.487-.138-.005-.246-.121-.241-.259.005-.138.091-.247.259-.241C54.039 35.152 57 38.221 57 42c0 .596-.083 1.207-.246 1.815C56.724 43.926 56.623 44 56.513 44zM49.75 48.987c-.003 0-.006 0-.009 0-.509-.019-1.033-.1-1.556-.24-.133-.036-.212-.173-.176-.306.036-.133.172-.211.306-.176.486.13.973.206 1.444.223.138.005.246.121.241.259C49.995 48.881 49.884 48.987 49.75 48.987zM46.75 48.155c-.041 0-.083-.01-.121-.031-.156-.086-.303-.185-.449-.284l-.07-.047c-.114-.077-.145-.232-.068-.347.078-.115.234-.143.347-.068l.071.048c.134.091.268.182.41.26.121.067.165.219.099.34C46.923 48.108 46.838 48.155 46.75 48.155zM45.226 47c-.064 0-.128-.024-.177-.073C43.728 45.604 43 43.855 43 42c0-2.117.945-4.098 2.592-5.436.107-.087.263-.071.352.037.087.107.07.265-.037.352C44.377 38.195 43.5 40.034 43.5 42c0 1.721.676 3.346 1.902 4.573.098.098.098.256 0 .354C45.354 46.976 45.29 47 45.226 47z"/></g></g><g><path fill="#472b29" d="M39.25 58C39.112 58 39 57.888 39 57.75v-28.5c0-.138.112-.25.25-.25s.25.112.25.25v28.5C39.5 57.888 39.388 58 39.25 58zM39.25 60C39.112 60 39 59.888 39 59.75v-.5c0-.138.112-.25.25-.25s.25.112.25.25v.5C39.5 59.888 39.388 60 39.25 60zM39.25 62C39.112 62 39 61.888 39 61.75v-.5c0-.138.112-.25.25-.25s.25.112.25.25v.5C39.5 61.888 39.388 62 39.25 62zM39.25 64C39.112 64 39 63.888 39 63.75v-.5c0-.138.112-.25.25-.25s.25.112.25.25v.5C39.5 63.888 39.388 64 39.25 64zM39.25 66C39.112 66 39 65.888 39 65.75v-.5c0-.138.112-.25.25-.25s.25.112.25.25v.5C39.5 65.888 39.388 66 39.25 66zM39.25 68C39.112 68 39 67.888 39 67.75v-.5c0-.138.112-.25.25-.25s.25.112.25.25v.5C39.5 67.888 39.388 68 39.25 68z"/></g><g><path fill="#472b29" d="M60.75 68c-.138 0-.25-.112-.25-.25v-28.5c0-.138.112-.25.25-.25S61 39.112 61 39.25v28.5C61 67.888 60.888 68 60.75 68zM60.75 38c-.138 0-.25-.112-.25-.25v-.5c0-.138.112-.25.25-.25S61 37.112 61 37.25v.5C61 37.888 60.888 38 60.75 38zM60.75 36c-.138 0-.25-.112-.25-.25v-.5c0-.138.112-.25.25-.25S61 35.112 61 35.25v.5C61 35.888 60.888 36 60.75 36zM60.75 34c-.138 0-.25-.112-.25-.25v-.5c0-.138.112-.25.25-.25S61 33.112 61 33.25v.5C61 33.888 60.888 34 60.75 34zM60.75 32c-.138 0-.25-.112-.25-.25v-.5c0-.138.112-.25.25-.25S61 31.112 61 31.25v.5C61 31.888 60.888 32 60.75 32zM60.75 30c-.138 0-.25-.112-.25-.25v-.5c0-.138.112-.25.25-.25S61 29.112 61 29.25v.5C61 29.888 60.888 30 60.75 30z"/></g></svg>