<svg xmlns="http://www.w3.org/2000/svg" viewBox="0 0 100 100" width="50px" height="50px"><path fill="#f1bc19" d="M77 12A1 1 0 1 0 77 14A1 1 0 1 0 77 12Z"/><path fill="#e4e4f9" d="M50 13A37 37 0 1 0 50 87A37 37 0 1 0 50 13Z"/><path fill="#f1bc19" d="M83 11A4 4 0 1 0 83 19A4 4 0 1 0 83 11Z"/><path fill="#8889b9" d="M87 22A2 2 0 1 0 87 26A2 2 0 1 0 87 22Z"/><path fill="#fbcd59" d="M81 74A2 2 0 1 0 81 78 2 2 0 1 0 81 74zM15 59A4 4 0 1 0 15 67 4 4 0 1 0 15 59z"/><path fill="#8889b9" d="M25 85A2 2 0 1 0 25 89A2 2 0 1 0 25 85Z"/><path fill="#fff" d="M79.5 32A1.5 1.5 0 1 0 79.5 35A1.5 1.5 0 1 0 79.5 32Z"/><path fill="#fcba7f" d="M79,51.707c0-8.092-8.747-14.651-19.536-14.651s-19.536,6.559-19.536,14.651 s8.747,14.651,19.536,14.651h2.442c2.077,2.077,5.922,4.155,10.03,4.729c0.835,0.117,1.472-0.746,1.12-1.512 c-0.78-1.698-1.382-4.172-1.382-6.421l0,0C76.308,60.371,79.004,56.159,79,51.707"/><path fill="#472b29" d="M72.084,71.797c-0.082,0-0.163-0.005-0.245-0.017c-3.775-0.527-7.748-2.368-10.217-4.722h-2.158 c-11.158,0-20.236-6.887-20.236-15.352s9.078-15.352,20.236-15.352S79.7,43.242,79.7,51.707v-0.001 c0.004,4.615-2.658,8.91-7.319,11.836c0.061,1.9,0.563,4.11,1.312,5.741c0.27,0.589,0.197,1.278-0.191,1.8 C73.164,71.536,72.637,71.797,72.084,71.797z M59.464,37.756c-10.386,0-18.835,6.259-18.835,13.951s8.449,13.951,18.835,13.951 h2.732l0.205,0.205c1.843,1.844,5.535,3.959,9.631,4.53c0.2,0.031,0.306-0.093,0.345-0.146c0.041-0.054,0.125-0.199,0.042-0.38 c-0.892-1.94-1.446-4.513-1.446-6.713v-0.396l0.34-0.203c4.443-2.669,6.99-6.623,6.986-10.847v-0.001 C78.3,44.015,69.851,37.756,59.464,37.756z"/><g><path fill="#fed5b3" d="M22,44.656c-0.004,5.367,3.309,10.444,9.005,13.798l0,0c0,2.899-0.845,6.108-1.901,8.152 c-0.375,0.725,0.212,1.569,1.023,1.48c5.257-0.577,10.238-3.173,12.885-5.769h3.002c13.263,0,24.014-7.908,24.014-17.662 S59.277,26.994,46.014,26.994S22,34.901,22,44.656"/><path fill="#472b29" d="M30.014,68.793c-0.566,0-1.098-0.276-1.422-0.748c-0.358-0.522-0.4-1.197-0.109-1.76 c1.036-2.005,1.748-4.943,1.817-7.438c-5.73-3.499-9.004-8.653-9-14.193c0-10.124,11.087-18.361,24.714-18.361 c13.628,0,24.715,8.237,24.715,18.362S59.642,63.018,46.014,63.018h-2.721c-2.635,2.472-7.624,5.164-13.089,5.765 C30.141,68.79,30.077,68.793,30.014,68.793z M46.014,27.693c-12.855,0-23.314,7.609-23.314,16.962v0.001 c-0.004,5.143,3.152,9.952,8.66,13.194l0.345,0.203v0.4c0,2.82-0.777,6.146-1.979,8.474c-0.076,0.146-0.021,0.267,0.02,0.324 c0.033,0.048,0.13,0.163,0.305,0.139c5.281-0.58,10.068-3.218,12.471-5.573l0.204-0.2h3.288c12.856,0,23.314-7.609,23.314-16.962 S58.87,27.693,46.014,27.693z"/></g><g><path fill="#472b29" d="M48.5,36h-14c-0.276,0-0.5-0.224-0.5-0.5s0.224-0.5,0.5-0.5h14c0.276,0,0.5,0.224,0.5,0.5 S48.776,36,48.5,36z"/></g><g><path fill="#472b29" d="M59.5,36h-7c-0.276,0-0.5-0.224-0.5-0.5s0.224-0.5,0.5-0.5h7c0.276,0,0.5,0.224,0.5,0.5 S59.776,36,59.5,36z"/></g><g><path fill="#472b29" d="M41.25,42.25H29c-0.276,0-0.5-0.224-0.5-0.5s0.224-0.5,0.5-0.5h12.25c0.276,0,0.5,0.224,0.5,0.5 S41.526,42.25,41.25,42.25z"/></g><g><path fill="#472b29" d="M61.5,42.25h-16c-0.276,0-0.5-0.224-0.5-0.5s0.224-0.5,0.5-0.5h16c0.276,0,0.5,0.224,0.5,0.5 S61.776,42.25,61.5,42.25z"/></g><g><path fill="#472b29" d="M63.25,48.5H54.5c-0.276,0-0.5-0.224-0.5-0.5s0.224-0.5,0.5-0.5h8.75c0.276,0,0.5,0.224,0.5,0.5 S63.526,48.5,63.25,48.5z"/></g><g><path fill="#472b29" d="M50.25,48.5H28.5c-0.276,0-0.5-0.224-0.5-0.5s0.224-0.5,0.5-0.5h21.75c0.276,0,0.5,0.224,0.5,0.5 S50.526,48.5,50.25,48.5z"/></g><g><path fill="#472b29" d="M59.75,54.75H33.5c-0.276,0-0.5-0.224-0.5-0.5s0.224-0.5,0.5-0.5h26.25c0.276,0,0.5,0.224,0.5,0.5 S60.026,54.75,59.75,54.75z"/></g></svg>