<svg xmlns="http://www.w3.org/2000/svg" viewBox="0 0 100 100" width="100px" height="100px"><circle cx="13.063" cy="28.958" r="2" fill="#ee3e54"/><circle cx="77.063" cy="12.958" r="1" fill="#f1bc19"/><circle cx="50.063" cy="49.958" r="37" fill="#fce0a2"/><circle cx="83.063" cy="14.958" r="4" fill="#f1bc19"/><circle cx="87.063" cy="23.958" r="2" fill="#ee3e54"/><circle cx="81.063" cy="75.958" r="2" fill="#fbcd59"/><circle cx="20.063" cy="72.958" r="4" fill="#fbcd59"/><circle cx="25.063" cy="86.958" r="2" fill="#ee3e54"/><circle cx="27.563" cy="31.458" r="2.5" fill="#fff"/><circle cx="28.063" cy="74.958" r="1" fill="#f1bc19"/><circle cx="80.063" cy="33.958" r="1" fill="#fff"/><polygon fill="#a1a1ca" points="32.333,62.146 25.996,62.146 20.129,42.698 17.667,42.698 17.667,38.75 23.026,38.75 28.893,58.197 32.333,58.197"/><path fill="#472b29" d="M32.333,62.846h-6.337c-0.309,0-0.581-0.202-0.67-0.498l-5.716-18.949h-1.943 c-0.387,0-0.7-0.313-0.7-0.7V38.75c0-0.387,0.313-0.7,0.7-0.7h5.36c0.309,0,0.581,0.202,0.67,0.498l5.716,18.949h2.92 c0.387,0,0.7,0.313,0.7,0.7v3.948C33.034,62.532,32.72,62.846,32.333,62.846z M26.516,61.445h5.117v-2.548h-2.74 c-0.309,0-0.581-0.202-0.67-0.498L22.506,39.45h-4.14v2.548h1.763c0.309,0,0.581,0.202,0.67,0.498L26.516,61.445z"/><path fill="#a1a1ca" d="M40.637,65.236c-3.715-3.995-5.846-9.687-5.846-15.614c0-5.704,1.897-11.049,5.343-15.052 l3.031,2.609c-2.821,3.277-4.374,7.696-4.374,12.442c0,4.928,1.741,9.627,4.775,12.892L40.637,65.236z"/><path fill="#472b29" d="M40.637,65.937c-0.188,0-0.375-0.075-0.513-0.224c-3.834-4.123-6.033-9.988-6.033-16.091 c0-5.871,1.958-11.379,5.512-15.509c0.121-0.141,0.293-0.228,0.479-0.241c0.184-0.01,0.368,0.046,0.509,0.168l3.031,2.609 c0.293,0.252,0.326,0.694,0.074,0.987c-2.711,3.149-4.205,7.406-4.205,11.985c0,4.753,1.672,9.278,4.588,12.415 c0.126,0.136,0.194,0.316,0.187,0.502s-0.087,0.361-0.223,0.487l-2.93,2.723C40.979,65.874,40.808,65.937,40.637,65.937z M40.218,35.565c-3.053,3.812-4.726,8.773-4.726,14.057c0,5.499,1.884,10.783,5.191,14.616l1.905-1.771 c-2.865-3.36-4.497-7.999-4.497-12.845c0-4.659,1.451-9.019,4.098-12.359L40.218,35.565z"/><polygon fill="#a1a1ca" points="74.042,62.146 67.75,62.146 67.75,58.197 71.165,58.197 76.99,38.75 82.311,38.75 82.311,42.698 79.866,42.698"/><path fill="#472b29" d="M74.042,62.846H67.75c-0.387,0-0.7-0.313-0.7-0.7v-3.948c0-0.387,0.313-0.7,0.7-0.7h2.895 l5.675-18.948c0.088-0.296,0.361-0.499,0.67-0.499h5.321c0.387,0,0.7,0.313,0.7,0.7v3.948c0,0.387-0.313,0.7-0.7,0.7h-1.924 l-5.675,18.948C74.624,62.643,74.351,62.846,74.042,62.846z M68.45,61.445h5.07l5.675-18.948c0.088-0.296,0.361-0.499,0.67-0.499 h1.745V39.45h-4.1l-5.675,18.948c-0.088,0.296-0.361,0.499-0.67,0.499H68.45V61.445z"/><g><path fill="#a1a1ca" d="M60.465,65.361l-2.93-2.723c3.035-3.265,4.775-7.964,4.775-12.892c0-4.746-1.553-9.165-4.374-12.442 l3.031-2.609c3.445,4.003,5.343,9.348,5.343,15.052C66.311,55.675,64.18,61.366,60.465,65.361z"/><path fill="#472b29" d="M60.465,66.062c-0.171,0-0.342-0.063-0.477-0.188l-2.93-2.723c-0.136-0.126-0.216-0.302-0.223-0.487 s0.061-0.366,0.187-0.502c2.916-3.137,4.588-7.662,4.588-12.415c0-4.579-1.493-8.836-4.205-11.985 c-0.252-0.293-0.219-0.735,0.074-0.987l3.031-2.609c0.141-0.121,0.324-0.18,0.509-0.168c0.185,0.014,0.357,0.101,0.479,0.241 c3.554,4.13,5.512,9.638,5.512,15.509c0,6.103-2.199,11.968-6.033,16.091C60.839,65.986,60.652,66.062,60.465,66.062z M58.514,62.592l1.905,1.771c3.307-3.833,5.191-9.117,5.191-14.616c0-5.283-1.673-10.245-4.726-14.057l-1.971,1.697 c2.647,3.341,4.098,7.7,4.098,12.359C63.011,54.593,61.379,59.231,58.514,62.592z"/></g><g><path fill="#472b29" d="M48.412,59.442l-0.824-2.885L48,58l-0.418-1.44c0.253-0.074,6.209-1.907,7.963-8.924l2.91,0.729 C56.27,57.104,48.732,59.351,48.412,59.442z"/></g><g><rect width="4" height="4" x="43.276" y="44.257" fill="#472b29" transform="rotate(-24.776 45.271 46.253)"/></g><g><rect width="4" height="4" x="50.724" y="40.743" fill="#472b29" transform="rotate(-24.776 52.718 42.739)"/></g><g><path fill="#472b29" d="M33.5,67h-10c-0.276,0-0.5-0.224-0.5-0.5s0.224-0.5,0.5-0.5h10c0.276,0,0.5,0.224,0.5,0.5 S33.776,67,33.5,67z"/></g><g><path fill="#472b29" d="M22.293,63.18c-0.212,0-0.41-0.136-0.477-0.35l-2-6.334c-0.083-0.263,0.063-0.544,0.326-0.627 c0.263-0.079,0.544,0.063,0.627,0.326l2,6.334c0.083,0.263-0.063,0.544-0.326,0.627C22.394,63.172,22.343,63.18,22.293,63.18z"/></g><g><path fill="#472b29" d="M19.38,53.954c-0.212,0-0.41-0.136-0.477-0.35l-1.88-5.954c-0.083-0.263,0.063-0.544,0.326-0.627 c0.262-0.081,0.544,0.063,0.627,0.326l1.88,5.954c0.083,0.263-0.063,0.544-0.326,0.627C19.481,53.946,19.43,53.954,19.38,53.954z"/></g><g><path fill="#472b29" d="M76.5,67h-10c-0.276,0-0.5-0.224-0.5-0.5s0.224-0.5,0.5-0.5h9.633l0.984-3.116 c0.083-0.263,0.364-0.409,0.627-0.326c0.264,0.083,0.41,0.364,0.326,0.627l-1.094,3.466C76.911,66.858,76.718,67,76.5,67z"/></g><g><path fill="#472b29" d="M78.635,60.24c-0.05,0-0.101-0.008-0.15-0.023c-0.264-0.083-0.41-0.364-0.326-0.627l3.865-12.24 c0.083-0.264,0.366-0.407,0.627-0.326c0.264,0.083,0.41,0.364,0.326,0.627l-3.865,12.24C79.044,60.104,78.847,60.24,78.635,60.24z"/></g><g><path fill="#472b29" d="M32.282,39.851c-0.061,0-0.123-0.011-0.183-0.034c-0.257-0.102-0.384-0.392-0.283-0.648 c1.054-2.687,2.675-5.213,4.817-7.509c0.189-0.201,0.504-0.211,0.707-0.024c0.202,0.188,0.213,0.505,0.024,0.706 c-2.057,2.204-3.61,4.624-4.618,7.192C32.67,39.73,32.482,39.851,32.282,39.851z"/></g><g><path fill="#472b29" d="M30.999,47.5c-0.247,0-0.461-0.183-0.495-0.434c-0.012-0.088-0.278-2.185,0.479-5.276 c0.066-0.27,0.337-0.435,0.605-0.366c0.268,0.065,0.432,0.336,0.367,0.604c-0.709,2.894-0.462,4.887-0.459,4.906 c0.036,0.273-0.157,0.524-0.43,0.561C31.043,47.498,31.021,47.5,30.999,47.5z"/></g><g><path fill="#472b29" d="M66.551,35.788c-0.162,0-0.321-0.079-0.417-0.225c-0.255-0.386-0.529-0.776-0.824-1.168 c-0.525-0.7-1.105-1.391-1.725-2.055c-0.188-0.201-0.177-0.518,0.024-0.706c0.203-0.188,0.519-0.177,0.707,0.024 c0.643,0.689,1.247,1.407,1.793,2.136c0.307,0.408,0.592,0.814,0.858,1.218c0.152,0.23,0.089,0.54-0.141,0.692 C66.742,35.762,66.646,35.788,66.551,35.788z"/></g><g><path fill="#472b29" d="M69.952,47.5c-0.022,0-0.044-0.002-0.066-0.005c-0.273-0.036-0.466-0.287-0.43-0.561 c0.005-0.039,0.487-4.015-1.938-8.957c-0.122-0.248-0.02-0.548,0.229-0.67c0.249-0.122,0.547-0.019,0.669,0.229 c2.568,5.232,2.055,9.357,2.032,9.53C70.413,47.317,70.198,47.5,69.952,47.5z"/></g></svg>