<svg xmlns="http://www.w3.org/2000/svg" viewBox="0 0 100 100" width="200px" height="200px"><path fill="#78a0cf" d="M13 27A2 2 0 1 0 13 31A2 2 0 1 0 13 27Z"/><path fill="#f1bc19" d="M77 12A1 1 0 1 0 77 14A1 1 0 1 0 77 12Z"/><path fill="#cee1f4" d="M50 13A37 37 0 1 0 50 87A37 37 0 1 0 50 13Z"/><path fill="#f1bc19" d="M83 11A4 4 0 1 0 83 19A4 4 0 1 0 83 11Z"/><path fill="#78a0cf" d="M87 22A2 2 0 1 0 87 26A2 2 0 1 0 87 22Z"/><path fill="#fbcd59" d="M81 74A2 2 0 1 0 81 78 2 2 0 1 0 81 74zM15 59A4 4 0 1 0 15 67 4 4 0 1 0 15 59z"/><path fill="#78a0cf" d="M25 85A2 2 0 1 0 25 89A2 2 0 1 0 25 85Z"/><path fill="#fff" d="M18.5 51A2.5 2.5 0 1 0 18.5 56A2.5 2.5 0 1 0 18.5 51Z"/><path fill="#f1bc19" d="M21 66A1 1 0 1 0 21 68A1 1 0 1 0 21 66Z"/><path fill="#fff" d="M80 33A1 1 0 1 0 80 35A1 1 0 1 0 80 33Z"/><g><path fill="#fdfcee" d="M68,71H32c-2.761,0-5-2.239-5-5V34c0-2.761,2.239-5,5-5h36c2.761,0,5,2.239,5,5v32 C73,68.761,70.761,71,68,71z"/><path fill="#efeddf" d="M27 35.5H73V65.5H27z"/><path fill="#836f61" d="M26.5 35.5H47.625V65.5H26.5z"/><path fill="#472b29" d="M68,29.4c2.536,0,4.6,2.064,4.6,4.6v32c0,2.536-2.064,4.6-4.6,4.6H32c-2.536,0-4.6-2.064-4.6-4.6V34 c0-2.536,2.064-4.6,4.6-4.6H68 M68,28H32c-3.314,0-6,2.686-6,6v32c0,3.314,2.686,6,6,6h36c3.314,0,6-2.686,6-6V34 C74,30.686,71.314,28,68,28L68,28z"/><path fill="#472b29" d="M56.5 36H26.75c-.276 0-.5-.224-.5-.5s.224-.5.5-.5H56.5c.276 0 .5.224.5.5S56.776 36 56.5 36zM62.5 36h-4c-.276 0-.5-.224-.5-.5s.224-.5.5-.5h4c.276 0 .5.224.5.5S62.776 36 62.5 36zM73.125 36H65.5c-.276 0-.5-.224-.5-.5s.224-.5.5-.5h7.625c.276 0 .5.224.5.5S73.401 36 73.125 36zM73.125 66H68.5c-.276 0-.5-.224-.5-.5s.224-.5.5-.5h4.625c.276 0 .5.224.5.5S73.401 66 73.125 66zM65.5 66H26.625c-.276 0-.5-.224-.5-.5s.224-.5.5-.5H65.5c.276 0 .5.224.5.5S65.776 66 65.5 66z"/><path fill="#ee3e54" d="M32.499 31.307A1.193 1.193 0 1 0 32.499 33.693A1.193 1.193 0 1 0 32.499 31.307Z"/><path fill="#472b29" d="M32.501,31.75c0.413,0,0.749,0.336,0.749,0.75s-0.336,0.75-0.749,0.75 c-0.414,0-0.751-0.336-0.751-0.75S32.087,31.75,32.501,31.75 M32.501,31C31.673,31,31,31.673,31,32.5c0,0.827,0.673,1.5,1.501,1.5 C33.327,34,34,33.327,34,32.5C34,31.673,33.328,31,32.501,31L32.501,31z"/><path fill="#f1bc19" d="M36.5 31.307A1.193 1.193 0 1 0 36.5 33.693A1.193 1.193 0 1 0 36.5 31.307Z"/><path fill="#472b29" d="M36.5,31.75c0.414,0,0.75,0.336,0.75,0.75s-0.336,0.75-0.75,0.75s-0.75-0.336-0.75-0.75 S36.086,31.75,36.5,31.75 M36.5,31c-0.827,0-1.5,0.673-1.5,1.5c0,0.827,0.673,1.5,1.5,1.5c0.826,0,1.5-0.673,1.5-1.5 C38,31.673,37.327,31,36.5,31L36.5,31z"/><path fill="#88ae45" d="M40.501 31.307A1.193 1.193 0 1 0 40.501 33.693A1.193 1.193 0 1 0 40.501 31.307Z"/><path fill="#472b29" d="M40.501,31.75c0.413,0,0.749,0.336,0.749,0.75s-0.336,0.75-0.749,0.75 c-0.414,0-0.751-0.336-0.751-0.75S40.087,31.75,40.501,31.75 M40.501,31C39.673,31,39,31.673,39,32.5c0,0.827,0.673,1.5,1.501,1.5 C41.328,34,42,33.327,42,32.5C42,31.673,41.328,31,40.501,31L40.501,31z"/></g><g><path fill="#472b29" d="M47.625 64c-.207 0-.375-.168-.375-.375v-26.25c0-.207.168-.375.375-.375S48 37.168 48 37.375v26.25C48 63.832 47.832 64 47.625 64zM32.625 64c-.207 0-.375-.168-.375-.375v-26.25c0-.207.168-.375.375-.375S33 37.168 33 37.375v26.25C33 63.832 32.832 64 32.625 64z"/></g><g><path fill="#fdfcef" d="M30.625 39h-1.25C29.168 39 29 38.832 29 38.625s.168-.375.375-.375h1.25c.207 0 .375.168.375.375S30.832 39 30.625 39zM30.625 41h-1.25C29.168 41 29 40.832 29 40.625s.168-.375.375-.375h1.25c.207 0 .375.168.375.375S30.832 41 30.625 41zM30.625 43h-1.25C29.168 43 29 42.832 29 42.625s.168-.375.375-.375h1.25c.207 0 .375.168.375.375S30.832 43 30.625 43zM30.625 45h-1.25C29.168 45 29 44.832 29 44.625s.168-.375.375-.375h1.25c.207 0 .375.168.375.375S30.832 45 30.625 45zM30.625 47h-1.25C29.168 47 29 46.832 29 46.625s.168-.375.375-.375h1.25c.207 0 .375.168.375.375S30.832 47 30.625 47zM30.625 49h-1.25C29.168 49 29 48.832 29 48.625s.168-.375.375-.375h1.25c.207 0 .375.168.375.375S30.832 49 30.625 49zM30.625 51h-1.25C29.168 51 29 50.832 29 50.625s.168-.375.375-.375h1.25c.207 0 .375.168.375.375S30.832 51 30.625 51zM30.625 53h-1.25C29.168 53 29 52.832 29 52.625s.168-.375.375-.375h1.25c.207 0 .375.168.375.375S30.832 53 30.625 53zM30.625 55h-1.25C29.168 55 29 54.832 29 54.625s.168-.375.375-.375h1.25c.207 0 .375.168.375.375S30.832 55 30.625 55zM30.625 57h-1.25C29.168 57 29 56.832 29 56.625s.168-.375.375-.375h1.25c.207 0 .375.168.375.375S30.832 57 30.625 57zM30.625 59h-1.25C29.168 59 29 58.832 29 58.625s.168-.375.375-.375h1.25c.207 0 .375.168.375.375S30.832 59 30.625 59zM30.625 61h-1.25C29.168 61 29 60.832 29 60.625s.168-.375.375-.375h1.25c.207 0 .375.168.375.375S30.832 61 30.625 61zM30.625 63h-1.25C29.168 63 29 62.832 29 62.625s.168-.375.375-.375h1.25c.207 0 .375.168.375.375S30.832 63 30.625 63z"/></g><g><path fill="#fdfcef" d="M39.375 45c-.042 0-.085-.007-.127-.022-.195-.07-.296-.285-.226-.48l2.25-6.25c.07-.195.283-.298.48-.226.195.07.296.285.226.48l-2.25 6.25C39.673 44.905 39.529 45 39.375 45zM36.625 44c-.113 0-.224-.05-.298-.146l-1.25-1.625c-.104-.135-.104-.322 0-.457l1.25-1.625c.126-.165.362-.195.526-.069.164.126.195.362.069.526L35.848 42l1.074 1.396c.126.164.095.399-.069.526C36.786 43.975 36.705 44 36.625 44zM44.375 44c-.08 0-.16-.025-.228-.078-.164-.126-.195-.362-.069-.526L45.152 42l-1.074-1.396c-.126-.164-.095-.399.069-.526.165-.126.399-.096.526.069l1.25 1.625c.104.135.104.322 0 .457l-1.25 1.625C44.598 43.95 44.487 44 44.375 44z"/></g><g><path fill="#c5def0" d="M51.375 41.375H62.625V48.625H51.375z"/><path fill="#472b29" d="M62.625 49h-11.25C51.168 49 51 48.832 51 48.625v-7.25C51 41.168 51.168 41 51.375 41h11.25C62.832 41 63 41.168 63 41.375v7.25C63 48.832 62.832 49 62.625 49zM51.75 48.25h10.5v-6.5h-10.5V48.25zM68.75 41.5h-3.5c-.138 0-.25-.112-.25-.25S65.112 41 65.25 41h3.5c.138 0 .25.112.25.25S68.888 41.5 68.75 41.5zM68.75 44h-3.5C65.112 44 65 43.888 65 43.75s.112-.25.25-.25h3.5c.138 0 .25.112.25.25S68.888 44 68.75 44zM68.75 46.5h-3.5c-.138 0-.25-.112-.25-.25S65.112 46 65.25 46h3.5c.138 0 .25.112.25.25S68.888 46.5 68.75 46.5zM68.75 49h-3.5C65.112 49 65 48.888 65 48.75s.112-.25.25-.25h3.5c.138 0 .25.112.25.25S68.888 49 68.75 49z"/><path fill="#472b29" d="M50.481 44.75H63.519000000000005V45.25H50.481z" transform="rotate(-32.478 57.002 44.999)"/><path fill="#472b29" d="M54 39.99H54.5V46.509H54z" transform="rotate(-57.529 54.248 43.248)"/><path fill="#472b29" d="M62.5,48.75c-0.046,0-0.093-0.013-0.134-0.039l-3.536-2.25c-0.116-0.074-0.151-0.229-0.077-0.345 c0.075-0.117,0.231-0.149,0.345-0.077l3.536,2.25c0.116,0.074,0.151,0.229,0.077,0.345C62.663,48.709,62.583,48.75,62.5,48.75z"/></g><g><path fill="#c5def0" d="M57.375 53.375H68.625V60.625H57.375z"/><path fill="#472b29" d="M68.625,61h-11.25C57.168,61,57,60.832,57,60.625v-7.25C57,53.168,57.168,53,57.375,53h11.25 C68.832,53,69,53.168,69,53.375v7.25C69,60.832,68.832,61,68.625,61z M57.75,60.25h10.5v-6.5h-10.5V60.25z"/><path fill="#472b29" d="M56.481 56.75H69.519V57.25H56.481z" transform="rotate(-32.478 63.003 56.999)"/><path fill="#472b29" d="M60 51.99H60.5V58.509H60z" transform="rotate(-57.529 60.247 55.247)"/><path fill="#472b29" d="M68.5 60.75c-.046 0-.093-.013-.134-.039l-3.536-2.25c-.116-.074-.151-.229-.077-.345.075-.116.23-.15.345-.077l3.536 2.25c.116.074.151.229.077.345C68.663 60.709 68.583 60.75 68.5 60.75zM54.75 53.5h-3.5c-.138 0-.25-.112-.25-.25S51.112 53 51.25 53h3.5c.138 0 .25.112.25.25S54.888 53.5 54.75 53.5zM54.75 56h-3.5C51.112 56 51 55.888 51 55.75s.112-.25.25-.25h3.5c.138 0 .25.112.25.25S54.888 56 54.75 56zM54.75 58.5h-3.5c-.138 0-.25-.112-.25-.25S51.112 58 51.25 58h3.5c.138 0 .25.112.25.25S54.888 58.5 54.75 58.5zM54.75 61h-3.5C51.112 61 51 60.888 51 60.75s.112-.25.25-.25h3.5c.138 0 .25.112.25.25S54.888 61 54.75 61z"/></g></svg>