<svg xmlns="http://www.w3.org/2000/svg" viewBox="0 0 100 100" width="500px" height="500px"><path fill="#f1bc19" d="M77 12A1 1 0 1 0 77 14A1 1 0 1 0 77 12Z"/><path fill="#e4e4f9" d="M50 13A37 37 0 1 0 50 87A37 37 0 1 0 50 13Z"/><path fill="#f1bc19" d="M83 11A4 4 0 1 0 83 19A4 4 0 1 0 83 11Z"/><path fill="#8889b9" d="M87 22A2 2 0 1 0 87 26A2 2 0 1 0 87 22Z"/><path fill="#fbcd59" d="M81 74A2 2 0 1 0 81 78 2 2 0 1 0 81 74zM15 59A4 4 0 1 0 15 67 4 4 0 1 0 15 59z"/><path fill="#8889b9" d="M25 85A2 2 0 1 0 25 89A2 2 0 1 0 25 85Z"/><path fill="#fff" d="M18.5 49A2.5 2.5 0 1 0 18.5 54 2.5 2.5 0 1 0 18.5 49zM79.5 32A1.5 1.5 0 1 0 79.5 35 1.5 1.5 0 1 0 79.5 32z"/><g><path fill="#f4989e" d="M76,45.34c0,13.16-17.79,24.83-26,29.51c-8.21-4.68-26-16.35-26-29.51c0-6.82,3.3-12.27,8.4-13.88 c0.98-0.3,1.99-0.46,3-0.46c4.42,0,9.2,3.2,13.12,8.79c0.32,0.47,0.88,0.75,1.48,0.75s1.16-0.28,1.48-0.75 c3.91-5.57,8.74-8.77,13.25-8.77c0.98,0,1.94,0.15,2.87,0.44C72.7,33.07,76,38.52,76,45.34z"/></g><path fill="#472b29" d="M35.402,31.4c4.287,0,8.948,3.142,12.784,8.616c0.403,0.581,1.081,0.927,1.814,0.927 c0.734,0,1.413-0.348,1.809-0.922c3.831-5.465,8.541-8.6,12.923-8.6c0.933,0,1.856,0.142,2.744,0.421 c4.935,1.555,8.123,6.851,8.123,13.493c0.001,12.853-17.368,24.337-25.598,29.054C41.771,69.672,24.4,58.188,24.4,45.335 c0-6.642,3.189-11.938,8.124-13.493C33.458,31.549,34.427,31.4,35.402,31.4 M35.402,30c-1.113,0-2.216,0.167-3.299,0.507 C26.573,32.25,23,38.07,23,45.335c0,13.623,17.871,25.462,26.514,30.388c0.306,0.175,0.669,0.175,0.975,0 C59.132,70.798,77.002,58.962,77,45.335c0-7.266-3.573-13.085-9.102-14.828c-1.039-0.327-2.098-0.486-3.165-0.486 c-4.897,0-9.969,3.346-14.069,9.196c-0.15,0.217-0.406,0.326-0.663,0.326s-0.513-0.109-0.664-0.326 C45.275,33.422,40.254,30,35.402,30L35.402,30z"/><g><path fill="#472b29" d="M70.71,39c-0.168,0-0.333-0.085-0.428-0.24c-0.339-0.558-0.724-1.066-1.145-1.509 c-0.19-0.2-0.183-0.517,0.018-0.707c0.199-0.19,0.516-0.183,0.707,0.018c0.47,0.494,0.899,1.059,1.275,1.678 c0.143,0.236,0.067,0.544-0.168,0.687C70.889,38.977,70.799,39,70.71,39z"/></g><g><path fill="#472b29" d="M50.02,71c-0.088,0-0.193-0.023-0.27-0.068C42.909,66.957,27,56.523,27,45.531 c0-5.547,2.615-9.939,6.663-11.188C34.401,34.115,35.165,34,35.935,34c3.588,0,7.578,2.703,10.949,7.416 c0.701,0.99,1.867,1.58,3.122,1.58c1.262,0,2.427-0.59,3.126-1.578C56.501,36.703,60.489,34,64.073,34 c0.769,0,1.531,0.115,2.27,0.342c0.48,0.149,0.949,0.345,1.394,0.583c0.243,0.13,0.335,0.434,0.204,0.677 c-0.13,0.244-0.436,0.335-0.677,0.204c-0.388-0.208-0.797-0.379-1.216-0.509C65.406,35.1,64.741,35,64.073,35 c-3.258,0-6.948,2.55-10.126,6.997c-0.886,1.251-2.355,1.999-3.933,1.999c-1.587,0-3.059-0.748-3.945-2 C42.89,37.55,39.195,35,35.935,35c-0.67,0-1.335,0.1-1.977,0.298C30.339,36.415,28,40.432,28,45.531 c0,10.348,15.194,20.406,22.01,24.396C56.82,65.938,72,55.88,72,45.531c0-1.752-0.271-3.388-0.808-4.86 c-0.095-0.259,0.039-0.546,0.299-0.641c0.261-0.094,0.546,0.039,0.641,0.299C72.708,41.912,73,43.662,73,45.531 c0,10.993-15.896,21.426-22.729,25.401C50.194,70.977,50.107,71,50.02,71z"/></g></svg>