<svg xmlns="http://www.w3.org/2000/svg" viewBox="0 0 100 100" width="500px" height="500px"><path fill="#f1bc19" d="M77 12A1 1 0 1 0 77 14A1 1 0 1 0 77 12Z"/><path fill="#e6edb7" d="M50 13A37 37 0 1 0 50 87A37 37 0 1 0 50 13Z"/><path fill="#f1bc19" d="M83 11A4 4 0 1 0 83 19A4 4 0 1 0 83 11Z"/><path fill="#88ae45" d="M87 22A2 2 0 1 0 87 26A2 2 0 1 0 87 22Z"/><path fill="#fbcd59" d="M81 74A2 2 0 1 0 81 78 2 2 0 1 0 81 74zM15 59A4 4 0 1 0 15 67 4 4 0 1 0 15 59z"/><path fill="#88ae45" d="M25 85A2 2 0 1 0 25 89A2 2 0 1 0 25 85Z"/><path fill="#fff" d="M18.5 49A2.5 2.5 0 1 0 18.5 54 2.5 2.5 0 1 0 18.5 49zM79.5 32A1.5 1.5 0 1 0 79.5 35 1.5 1.5 0 1 0 79.5 32z"/><path fill="#edf7f5" d="M36.013,75.3c-2.93,0-5.313-2.265-5.313-5.048V29.748c0-2.783,2.383-5.048,5.313-5.048h21.765 L71.3,37.627v32.625c0,2.783-2.383,5.048-5.313,5.048H36.013z"/><path fill="#472b29" d="M57.497,25.4l6.565,6.276l6.538,6.25v32.326c0,2.397-2.069,4.348-4.613,4.348H36.013 c-2.543,0-4.613-1.951-4.613-4.348V29.748c0-2.397,2.069-4.348,4.613-4.348h0.873h8.262H57.497 M58.059,24H45.148h-8.262h-0.873 C32.705,24,30,26.586,30,29.748v40.504C30,73.413,32.705,76,36.013,76h29.975C69.295,76,72,73.414,72,70.252V37.328 C66.578,32.145,63.481,29.183,58.059,24L58.059,24z"/><path fill="#85cfcc" d="M57.5,25.208v7.994c0,2.914,2.396,5.298,5.325,5.298H71"/><path fill="#472b29" d="M71 39h-8.175C59.613 39 57 36.399 57 33.202v-7.994h1v7.994C58 35.848 60.165 38 62.825 38H71V39zM55.5 28.75H41.75c-.138 0-.25-.112-.25-.25s.112-.25.25-.25H55.5c.138 0 .25.112.25.25S55.638 28.75 55.5 28.75zM64.693 71.75H37.307c-1.686 0-3.057-1.361-3.057-3.035v-37.43c0-1.674 1.371-3.035 3.057-3.035H39.5c.138 0 .25.112.25.25s-.112.25-.25.25h-2.193c-1.41 0-2.557 1.138-2.557 2.535v37.43c0 1.397 1.146 2.535 2.557 2.535h27.387c1.41 0 2.557-1.138 2.557-2.535V57.5c0-.138.112-.25.25-.25s.25.112.25.25v11.215C67.75 70.389 66.379 71.75 64.693 71.75zM67.5 54.75c-.138 0-.25-.112-.25-.25v-5c0-.138.112-.25.25-.25s.25.112.25.25v5C67.75 54.638 67.638 54.75 67.5 54.75z"/><g><path fill="#472b29" d="M67.5,48.333c-0.138,0-0.25-0.112-0.25-0.25v-2.25c0-0.138,0.112-0.25,0.25-0.25 s0.25,0.112,0.25,0.25v2.25C67.75,48.221,67.638,48.333,67.5,48.333z"/></g><g><path fill="#472b29" d="M62.5,53.75h-23c-0.138,0-0.25-0.112-0.25-0.25s0.112-0.25,0.25-0.25h23 c0.138,0,0.25,0.112,0.25,0.25S62.638,53.75,62.5,53.75z"/></g><g><path fill="#472b29" d="M47.5,56.75h-8c-0.138,0-0.25-0.112-0.25-0.25s0.112-0.25,0.25-0.25h8c0.138,0,0.25,0.112,0.25,0.25 S47.638,56.75,47.5,56.75z"/></g><g><path fill="#472b29" d="M51.5,59.75h-12c-0.138,0-0.25-0.112-0.25-0.25s0.112-0.25,0.25-0.25h12 c0.138,0,0.25,0.112,0.25,0.25S51.638,59.75,51.5,59.75z"/></g><g><path fill="#472b29" d="M62.5,59.75h-8c-0.138,0-0.25-0.112-0.25-0.25s0.112-0.25,0.25-0.25h8c0.138,0,0.25,0.112,0.25,0.25 S62.638,59.75,62.5,59.75z"/></g><g><path fill="#472b29" d="M62.5,56.75h-13c-0.138,0-0.25-0.112-0.25-0.25s0.112-0.25,0.25-0.25h13 c0.138,0,0.25,0.112,0.25,0.25S62.638,56.75,62.5,56.75z"/></g><g><path fill="#472b29" d="M62.5,62.75h-23c-0.138,0-0.25-0.112-0.25-0.25s0.112-0.25,0.25-0.25h23 c0.138,0,0.25,0.112,0.25,0.25S62.638,62.75,62.5,62.75z"/></g><g><path fill="#472b29" d="M47.5,65.75h-8c-0.138,0-0.25-0.112-0.25-0.25s0.112-0.25,0.25-0.25h8c0.138,0,0.25,0.112,0.25,0.25 S47.638,65.75,47.5,65.75z"/></g><g><path fill="#472b29" d="M62.5,65.75h-13c-0.138,0-0.25-0.112-0.25-0.25s0.112-0.25,0.25-0.25h13 c0.138,0,0.25,0.112,0.25,0.25S62.638,65.75,62.5,65.75z"/></g><g><path fill="#fff" d="M39.5 32.5H53.5V49.5H39.5z"/><path fill="#472b29" d="M53.75,49.75h-14.5v-17.5h14.5V49.75z M39.75,49.25h13.5v-16.5h-13.5V49.25z"/><path fill="#fed5b3" d="M44.575 42.548H48.234V46.999H44.575z"/><path fill="#472b29" d="M48.484,47.249h-4.159v-4.951h4.159V47.249z M44.825,46.749h3.159v-3.951h-3.159V46.749z"/><path fill="#fae8e6" d="M50.011,39.681c0,2.247-1.61,5.586-3.595,5.586c-1.986,0-3.595-3.339-3.595-5.586 c0-2.247,1.588-3.7,3.574-3.7S50.011,37.435,50.011,39.681z"/><path fill="#472b29" d="M46.416,45.518c-2.194,0-3.846-3.54-3.846-5.836c0-2.289,1.607-3.95,3.823-3.95 c2.241,0,3.867,1.661,3.867,3.95C50.261,41.978,48.609,45.518,46.416,45.518z M46.394,36.231c-1.926,0-3.323,1.451-3.323,3.45 c0,2.107,1.499,5.336,3.346,5.336s3.345-3.229,3.345-5.336C49.761,37.683,48.345,36.231,46.394,36.231z"/><g><path fill="#d38b5d" d="M43.291,40.985c0,0-2.739-5.05,2.247-6.677c2.161-0.706,2.739,1.134,2.739,1.134 s1.455,0.021,1.883,1.113s0.621,2.761-0.171,4.13c-0.369-0.704-0.692-1.22-0.853-2.543c-1.387,0.419-4.049,0.044-5.162-1.032 L43.291,40.985z"/><path fill="#472b29" d="M43.413,41.734l-0.342-0.63c-0.055-0.102-1.338-2.509-0.499-4.611 c0.45-1.129,1.422-1.944,2.889-2.422c0.765-0.249,1.437-0.231,1.994,0.057c0.584,0.3,0.878,0.813,0.996,1.075 c0.431,0.044,1.547,0.253,1.941,1.262c0.455,1.157,0.646,2.907-0.187,4.346l-0.228,0.393l-0.301-0.571 c-0.314-0.594-0.59-1.112-0.751-2.178c-1.381,0.294-3.555-0.015-4.781-0.88L43.413,41.734z M49.349,37.817l0.036,0.295 c0.122,1.001,0.331,1.506,0.598,2.023c0.493-1.194,0.313-2.553-0.055-3.488c-0.362-0.926-1.642-0.955-1.654-0.955l-0.179-0.003 l-0.056-0.171c-0.002-0.007-0.213-0.641-0.818-0.949c-0.435-0.221-0.976-0.228-1.604-0.023c-1.318,0.43-2.186,1.146-2.579,2.13 c-0.487,1.222-0.149,2.61,0.152,3.443l0.619-3.516l0.339,0.327c1.026,0.992,3.604,1.37,4.917,0.973L49.349,37.817z"/></g><g><path fill="#ef5390" d="M50.332,47.284l-1.947-1.034c-0.918,0.693-2.898,0.651-3.788,0l-2.054,1.034 c-1.07,0.536-2.375,1.074-2.375,2.216v0H52.75v0C52.75,48.358,51.573,47.912,50.332,47.284z"/><path fill="#472b29" d="M53,49.75H39.917V49.5c0-1.204,1.193-1.79,2.245-2.307l2.459-1.235l0.123,0.09 c0.829,0.606,2.688,0.607,3.49,0.003l0.127-0.097l2.471,1.3C51.947,47.804,53,48.322,53,49.5V49.75z M40.444,49.25h12.031 c-0.134-0.661-0.818-1.032-1.864-1.548l-0.396-0.197l-1.813-0.963c-0.981,0.616-2.821,0.615-3.822-0.003l-2.196,1.103 C41.511,48.07,40.611,48.512,40.444,49.25z"/></g></g></svg>