<svg xmlns="http://www.w3.org/2000/svg" viewBox="0 0 100 100" width="500px" height="500px"><path fill="#78a0cf" d="M13 27A2 2 0 1 0 13 31A2 2 0 1 0 13 27Z"/><path fill="#f1bc19" d="M77 12A1 1 0 1 0 77 14A1 1 0 1 0 77 12Z"/><path fill="#cee1f4" d="M50 13A37 37 0 1 0 50 87A37 37 0 1 0 50 13Z"/><path fill="#f1bc19" d="M83 11A4 4 0 1 0 83 19A4 4 0 1 0 83 11Z"/><path fill="#78a0cf" d="M87 22A2 2 0 1 0 87 26A2 2 0 1 0 87 22Z"/><path fill="#fbcd59" d="M81 74A2 2 0 1 0 81 78 2 2 0 1 0 81 74zM15 59A4 4 0 1 0 15 67 4 4 0 1 0 15 59z"/><path fill="#78a0cf" d="M25 85A2 2 0 1 0 25 89A2 2 0 1 0 25 85Z"/><path fill="#fff" d="M18.5 51A2.5 2.5 0 1 0 18.5 56A2.5 2.5 0 1 0 18.5 51Z"/><path fill="#f1bc19" d="M21 66A1 1 0 1 0 21 68A1 1 0 1 0 21 66Z"/><path fill="#fff" d="M80 33A1 1 0 1 0 80 35A1 1 0 1 0 80 33Z"/><g><path fill="#fddbbc" d="M49.885,70.731l16.912-8.528c1.879-0.867,3.035-3.325,2.313-5.348 c-0.578-1.735-2.168-2.746-3.903-2.746c-0.578,0-1.012,0.145-1.59,0.289l-13.876,5.637"/><path fill="#472b29" d="M49.887,71.431c-0.257,0-0.503-0.141-0.626-0.385c-0.174-0.346-0.035-0.767,0.31-0.94l16.911-8.527 c1.644-0.759,2.554-2.852,1.969-4.488c-0.464-1.392-1.735-2.281-3.243-2.281c-0.389,0-0.698,0.081-1.127,0.192l-0.293,0.075 l-13.782,5.606c-0.358,0.146-0.766-0.027-0.912-0.385c-0.146-0.358,0.026-0.767,0.385-0.912l14.249-5.739 c0.469-0.122,0.911-0.238,1.48-0.238c2.121,0,3.913,1.266,4.566,3.225c0.823,2.306-0.403,5.153-2.684,6.206l-16.889,8.517 C50.1,71.406,49.992,71.431,49.887,71.431z"/></g><g><path fill="#fddbbc" d="M54.222,72.176l16.912-8.528c1.879-0.867,3.035-3.325,2.313-5.348 c-0.578-1.735-2.168-2.746-3.903-2.746c-0.578,0-1.012,0.145-1.59,0.289L54.077,61.48"/><path fill="#472b29" d="M54.223,72.877c-0.257,0-0.503-0.141-0.626-0.385c-0.174-0.346-0.035-0.767,0.31-0.94l16.912-8.528 c1.644-0.759,2.554-2.852,1.969-4.488c-0.464-1.392-1.735-2.281-3.244-2.281c-0.389,0-0.698,0.081-1.127,0.192l-0.293,0.075 l-13.782,5.607c-0.36,0.146-0.767-0.026-0.912-0.385s0.026-0.767,0.385-0.912l14.249-5.74c0.469-0.122,0.911-0.238,1.48-0.238 c2.122,0,3.914,1.266,4.567,3.225c0.823,2.306-0.403,5.153-2.684,6.206l-16.89,8.518C54.436,72.853,54.328,72.877,54.223,72.877z"/></g><g><path fill="#fddbbc" d="M23.723,52.374l7.805-2.891c1.445-0.578,2.891-0.723,4.336-0.723c2.024,0,4.047,0.434,5.782,1.445 l13.732,7.227c1.735,0.867,2.313,3.035,1.445,4.77l-0.289,0.578l1.735,1.156l14.165-5.782c0.434-0.145,0.867-0.289,1.301-0.289 c1.445,0,2.746,0.867,3.18,2.168c0.578,1.59-0.289,3.614-1.879,4.336l-16.912,8.528c-0.434,0.289-1.156,0.434-1.735,0.434 s-1.156-0.145-1.735-0.434L32.829,62.781l-9.106,3.614"/><path fill="#472b29" d="M56.39,74.033c-0.686,0-1.374-0.171-2.048-0.508l-21.534-9.982l-8.827,3.502 c-0.354,0.146-0.766-0.032-0.908-0.393c-0.143-0.359,0.033-0.766,0.393-0.908l9.106-3.613c0.177-0.072,0.377-0.067,0.552,0.016 l21.826,10.118c0.496,0.247,0.975,0.368,1.44,0.368c0.505,0,1.071-0.133,1.346-0.315l16.985-8.571 c1.27-0.577,1.989-2.227,1.536-3.473c-0.338-1.013-1.372-1.707-2.521-1.707c-0.32,0-0.688,0.123-1.079,0.253l-14.123,5.767 c-0.215,0.086-0.459,0.063-0.653-0.066l-1.734-1.156c-0.293-0.195-0.396-0.579-0.237-0.896l0.289-0.578 c0.72-1.44,0.212-3.159-1.133-3.831L41.32,50.824c-1.54-0.897-3.418-1.364-5.456-1.364c-1.656,0-2.913,0.207-4.076,0.673 l-7.822,2.897c-0.359,0.137-0.766-0.051-0.899-0.413c-0.135-0.362,0.051-0.766,0.413-0.899l7.806-2.892 c1.319-0.528,2.736-0.767,4.579-0.767c2.286,0,4.407,0.533,6.135,1.541l13.705,7.213c2.021,1.011,2.811,3.571,1.745,5.702 l-0.013,0.026l0.911,0.607l13.822-5.643c0.522-0.176,1.019-0.341,1.565-0.341c1.771,0,3.316,1.063,3.844,2.646 c0.702,1.933-0.326,4.32-2.253,5.196l-16.887,8.516C57.902,73.889,57.017,74.033,56.39,74.033z"/></g><g><path fill="#ea5167" d="M56,48.147c-2.975-2.091-13.3-9.789-13.3-15.895c0-3.796,2.716-6.551,6.458-6.551 c2.35,0,3.979,0.877,5.627,3.028L56,30.314l1.215-1.585c1.647-2.152,3.277-3.029,5.627-3.029c3.742,0.002,6.458,2.758,6.458,6.553 C69.3,38.375,58.975,46.061,56,48.147z"/><path fill="#472b29" d="M62.841,26.4L62.841,26.4c3.39,0.001,5.758,2.408,5.758,5.853c0,4.518-6.614,10.788-12.599,15.039 C50.015,43.035,43.4,36.761,43.4,32.253c0-3.445,2.368-5.851,5.758-5.851c2.131,0,3.553,0.772,5.072,2.755l0.659,0.859l1.112,1.45 l1.111-1.451l0.659-0.86C59.289,27.172,60.711,26.4,62.841,26.4 M62.842,25c-2.56,0-4.409,0.988-6.183,3.303L56,29.164 l-0.659-0.859c-1.774-2.315-3.624-3.303-6.183-3.303c-4.149,0-7.158,3.05-7.158,7.251C42,39.018,53.541,47.308,56,49 c2.461-1.69,14-9.978,14-16.747C70,28.052,66.991,25.002,62.842,25L62.842,25z"/></g><g><path fill="#fddbbc" d="M44.458,60.083c-0.79-0.398-2-1-2-1"/><path fill="#472b29" d="M44.458,60.583c-0.076,0-0.153-0.018-0.226-0.054c-0.788-0.397-1.997-0.998-1.997-0.999l0.445-0.895 c0,0,1.212,0.602,2.003,1.001c0.246,0.124,0.345,0.425,0.221,0.672C44.816,60.482,44.641,60.583,44.458,60.583z"/></g><g><path fill="#fddbbc" d="M56.5,62.5c-0.708,1.25-2.484,2.217-5,1c-1.081-0.523-3.308-1.637-5.138-2.558"/><path fill="#472b29" d="M53.709,64.56c-0.729,0-1.546-0.184-2.427-0.609c-1.082-0.523-3.312-1.64-5.145-2.562 c-0.247-0.124-0.346-0.424-0.222-0.671c0.123-0.248,0.425-0.35,0.671-0.222c1.827,0.918,4.051,2.032,5.131,2.554 c2.259,1.093,3.754,0.254,4.347-0.796c0.138-0.242,0.444-0.326,0.682-0.189c0.24,0.137,0.325,0.441,0.189,0.682 C56.349,63.782,55.212,64.56,53.709,64.56z"/></g><g><path fill="#ea5167" d="M62.884,36.705c-2.482,2.671-5.946,5.92-5.946,5.92"/><path fill="#472b29" d="M56.938,43.125c-0.133,0-0.267-0.053-0.364-0.158c-0.189-0.201-0.18-0.518,0.022-0.706 c0.034-0.033,3.479-3.269,5.922-5.896c0.189-0.201,0.505-0.213,0.707-0.025s0.214,0.504,0.025,0.707 c-2.466,2.652-5.936,5.911-5.971,5.943C57.183,43.08,57.061,43.125,56.938,43.125z"/></g><g><path fill="#ea5167" d="M65.518,30.49c0.472,0.903,0.479,2.213-0.518,3.697"/><path fill="#472b29" d="M65,34.688c-0.097,0-0.193-0.027-0.279-0.085c-0.229-0.154-0.29-0.465-0.136-0.694 c0.771-1.146,0.949-2.308,0.49-3.187c-0.128-0.245-0.033-0.547,0.212-0.675c0.245-0.126,0.546-0.033,0.675,0.212 c0.634,1.214,0.435,2.748-0.547,4.208C65.318,34.61,65.16,34.688,65,34.688z"/></g></svg>