<svg xmlns="http://www.w3.org/2000/svg" viewBox="0 0 100 100" width="200px" height="200px"><path fill="#ee3e54" d="M12.875,26.958c-1.105,0-2,0.895-2,2s0.895,2,2,2s2-0.895,2-2S13.98,26.958,12.875,26.958z"/><path fill="#f1bc19" d="M76.875,11.958c-0.551,0-1,0.449-1,1s0.449,1,1,1s1-0.449,1-1S77.426,11.958,76.875,11.958z"/><path fill="#fce0a2" d="M49.875,12.958c-20.434,0-37,16.566-37,37s16.566,37,37,37s37-16.566,37-37 S70.309,12.958,49.875,12.958z"/><path fill="#f1bc19" d="M82.875,10.958c-2.211,0-4,1.789-4,4s1.789,4,4,4s4-1.789,4-4S85.086,10.958,82.875,10.958z"/><path fill="#ee3e54" d="M86.875,21.958c-1.105,0-2,0.895-2,2s0.895,2,2,2s2-0.895,2-2S87.98,21.958,86.875,21.958z"/><path fill="#fbcd59" d="M80.875,73.958c-1.105,0-2,0.895-2,2s0.895,2,2,2s2-0.895,2-2S81.98,73.958,80.875,73.958z M14.875,58.958c-2.211,0-4,1.789-4,4c0,2.211,1.789,4,4,4s4-1.789,4-4C18.875,60.747,17.086,58.958,14.875,58.958z"/><path fill="#ee3e54" d="M24.875,84.958c-1.105,0-2,0.895-2,2s0.895,2,2,2s2-0.895,2-2S25.98,84.958,24.875,84.958z"/><path fill="#fff" d="M18.375,40.958c-1.379,0-2.5,1.121-2.5,2.5s1.121,2.5,2.5,2.5s2.5-1.121,2.5-2.5 S19.754,40.958,18.375,40.958z"/><path fill="#f1bc19" d="M20.875,64.958c-0.551,0-1,0.449-1,1s0.449,1,1,1s1-0.449,1-1S21.426,64.958,20.875,64.958z"/><path fill="#fff" d="M79.875,31.958c-0.551,0-1,0.449-1,1s0.449,1,1,1s1-0.449,1-1S80.426,31.958,79.875,31.958z"/><g><rect width="46.6" height="11.6" x="26.7" y="61.7" fill="#cbc9bc"/><path fill="#472b29" d="M72.6,62.4v10.2H27.4V62.4H72.6 M74,61H26v13h48V61L74,61z"/><rect width="46.6" height="11.6" x="26.7" y="50.7" fill="#cbc9bc"/><path fill="#472b29" d="M72.6,51.4v10.2H27.4V51.4H72.6 M74,50H26v13h48V50L74,50z"/><rect width="46.6" height="11.6" x="26.7" y="39.7" fill="#cbc9bc"/><path fill="#472b29" d="M72.6,40.4v10.2H27.4V40.4H72.6 M74,39H26v13h48V39L74,39z"/><polygon fill="#e1e0d8" points="74,39 26,39 31,30 69,30"/><polygon fill="#472b29" points="27.608,39 31.773,31.458 68.125,31.458 72.394,39.008 73.996,39.008 69,30 31,30 26.006,39"/><circle cx="33.25" cy="45.75" r="2.25" fill="#88ae45"/><path fill="#472b29" d="M33.25,48.5c-1.517,0-2.75-1.233-2.75-2.75S31.733,43,33.25,43S36,44.233,36,45.75 S34.767,48.5,33.25,48.5z M33.25,44c-0.965,0-1.75,0.785-1.75,1.75s0.785,1.75,1.75,1.75S35,46.715,35,45.75S34.215,44,33.25,44z"/><path fill="#472b29" d="M68.5,44h-11c-0.276,0-0.5-0.224-0.5-0.5s0.224-0.5,0.5-0.5h11c0.276,0,0.5,0.224,0.5,0.5 S68.776,44,68.5,44z"/><path fill="#472b29" d="M68.5,46h-11c-0.276,0-0.5-0.224-0.5-0.5s0.224-0.5,0.5-0.5h11c0.276,0,0.5,0.224,0.5,0.5 S68.776,46,68.5,46z"/><path fill="#472b29" d="M43.5,46h-4c-0.276,0-0.5-0.224-0.5-0.5s0.224-0.5,0.5-0.5h4c0.276,0,0.5,0.224,0.5,0.5 S43.776,46,43.5,46z"/><path fill="#472b29" d="M54.5,46h-9c-0.276,0-0.5-0.224-0.5-0.5s0.224-0.5,0.5-0.5h9c0.276,0,0.5,0.224,0.5,0.5 S54.776,46,54.5,46z"/><path fill="#472b29" d="M43.5,68h-4c-0.276,0-0.5-0.224-0.5-0.5s0.224-0.5,0.5-0.5h4c0.276,0,0.5,0.224,0.5,0.5 S43.776,68,43.5,68z"/><path fill="#472b29" d="M54.5,68h-9c-0.276,0-0.5-0.224-0.5-0.5s0.224-0.5,0.5-0.5h9c0.276,0,0.5,0.224,0.5,0.5 S54.776,68,54.5,68z"/><path fill="#472b29" d="M54.5,57h-5c-0.276,0-0.5-0.224-0.5-0.5s0.224-0.5,0.5-0.5h5c0.276,0,0.5,0.224,0.5,0.5 S54.776,57,54.5,57z"/><path fill="#472b29" d="M47.5,57h-8c-0.276,0-0.5-0.224-0.5-0.5s0.224-0.5,0.5-0.5h8c0.276,0,0.5,0.224,0.5,0.5 S47.776,57,47.5,57z"/><path fill="#472b29" d="M68.5,48h-11c-0.276,0-0.5-0.224-0.5-0.5s0.224-0.5,0.5-0.5h11c0.276,0,0.5,0.224,0.5,0.5 S68.776,48,68.5,48z"/><circle cx="33.25" cy="56.75" r="2.25" fill="#88ae45"/><path fill="#472b29" d="M33.25,59.5c-1.517,0-2.75-1.233-2.75-2.75S31.733,54,33.25,54S36,55.233,36,56.75 S34.767,59.5,33.25,59.5z M33.25,55c-0.965,0-1.75,0.785-1.75,1.75s0.785,1.75,1.75,1.75S35,57.715,35,56.75S34.215,55,33.25,55z"/><path fill="#472b29" d="M68.5,55h-11c-0.276,0-0.5-0.224-0.5-0.5s0.224-0.5,0.5-0.5h11c0.276,0,0.5,0.224,0.5,0.5 S68.776,55,68.5,55z"/><path fill="#472b29" d="M68.5,57h-11c-0.276,0-0.5-0.224-0.5-0.5s0.224-0.5,0.5-0.5h11c0.276,0,0.5,0.224,0.5,0.5 S68.776,57,68.5,57z"/><path fill="#472b29" d="M68.5,59h-11c-0.276,0-0.5-0.224-0.5-0.5s0.224-0.5,0.5-0.5h11c0.276,0,0.5,0.224,0.5,0.5 S68.776,59,68.5,59z"/><circle cx="33.25" cy="67.75" r="2.25" fill="#88ae45"/><path fill="#472b29" d="M33.25,70.5c-1.517,0-2.75-1.233-2.75-2.75S31.733,65,33.25,65S36,66.233,36,67.75 S34.767,70.5,33.25,70.5z M33.25,66c-0.965,0-1.75,0.785-1.75,1.75s0.785,1.75,1.75,1.75S35,68.715,35,67.75S34.215,66,33.25,66z"/><g><path fill="#472b29" d="M68.5,66h-11c-0.276,0-0.5-0.224-0.5-0.5s0.224-0.5,0.5-0.5h11c0.276,0,0.5,0.224,0.5,0.5 S68.776,66,68.5,66z"/></g><g><path fill="#472b29" d="M68.5,68h-11c-0.276,0-0.5-0.224-0.5-0.5s0.224-0.5,0.5-0.5h11c0.276,0,0.5,0.224,0.5,0.5 S68.776,68,68.5,68z"/></g><g><path fill="#472b29" d="M68.5,70h-11c-0.276,0-0.5-0.224-0.5-0.5s0.224-0.5,0.5-0.5h11c0.276,0,0.5,0.224,0.5,0.5 S68.776,70,68.5,70z"/></g><g><path fill="#472b29" d="M31,37.75c-0.042,0-0.083-0.01-0.122-0.032c-0.121-0.067-0.164-0.22-0.097-0.34l2.208-3.958 c0.044-0.08,0.127-0.128,0.218-0.128h4c0.138,0,0.25,0.112,0.25,0.25s-0.112,0.25-0.25,0.25h-3.853l-2.137,3.83 C31.172,37.704,31.087,37.75,31,37.75z"/></g><g><path fill="#472b29" d="M49,33.792H38.958c-0.138,0-0.25-0.112-0.25-0.25s0.112-0.25,0.25-0.25H49 c0.138,0,0.25,0.112,0.25,0.25S49.138,33.792,49,33.792z"/></g><g><path fill="#472b29" d="M66.5,33.792H50.958c-0.138,0-0.25-0.112-0.25-0.25s0.112-0.25,0.25-0.25H66.5 c0.138,0,0.25,0.112,0.25,0.25S66.638,33.792,66.5,33.792z"/></g></g></svg>