<svg xmlns="http://www.w3.org/2000/svg" viewBox="0 0 100 100" width="100px" height="100px"><path fill="#e6edb7" d="M50 13A37 37 0 1 0 50 87A37 37 0 1 0 50 13Z"/><path fill="#88ae45" d="M13 27A2 2 0 1 0 13 31A2 2 0 1 0 13 27Z"/><path fill="#f1bc19" d="M77 12A1 1 0 1 0 77 14 1 1 0 1 0 77 12zM83 11A4 4 0 1 0 83 19 4 4 0 1 0 83 11z"/><path fill="#88ae45" d="M87 22A2 2 0 1 0 87 26A2 2 0 1 0 87 22Z"/><path fill="#fbcd59" d="M81 74A2 2 0 1 0 81 78 2 2 0 1 0 81 74zM15 59A4 4 0 1 0 15 67 4 4 0 1 0 15 59z"/><path fill="#88ae45" d="M25 85A2 2 0 1 0 25 89A2 2 0 1 0 25 85Z"/><path fill="#fff" d="M18.5 51A2.5 2.5 0 1 0 18.5 56A2.5 2.5 0 1 0 18.5 51Z"/><path fill="#f1bc19" d="M21 66A1 1 0 1 0 21 68A1 1 0 1 0 21 66Z"/><path fill="#fff" d="M80 33A1 1 0 1 0 80 35A1 1 0 1 0 80 33Z"/><g><path fill="#fdfcef" d="M73,31H27c-1.103,0-2,0.897-2,2l0,34c0.001,1.102,0.898,2,2,2l4,0v-1c0-0.552,0.448-1,1-1l4,0 c0.552,0,1,0.448,1,1v1l26.999,0L64,68c0-0.552,0.448-1,1-1h4c0.552,0,1,0.448,1,1v1l3,0c0.534,0,1.036-0.208,1.414-0.586 C74.792,68.036,75,67.534,75,67V40v-7C75,31.897,74.103,31,73,31z"/><path fill="#472b29" d="M73,30c0,0-19.343,0-21,0H27c-1.657,0-3,1.343-3,3l0,34c0.001,1.656,1.344,3,3,3c0,0,0,0,0,0 l3.999-0.001c0,0,0,0,0.001,0c0.552,0,1-0.448,1-1V68h4v1c0,0.552,0.448,1,1,1l26.999,0c0,0,0,0,0.001,0c0.552,0,1-0.448,1-1V68h4 v1c0,0.552,0.448,1,1,1l3,0c1.657,0,3-1.343,3-3V40v-7C76,31.343,74.657,30,73,30z M74.6,40v27c0,0.427-0.166,0.829-0.469,1.131 C73.829,68.433,73.427,68.6,73,68.6l-2.6,0V68c0-0.773-0.627-1.4-1.4-1.4h-4c-0.773,0-1.4,0.627-1.4,1.4v0.599l-23.456,0l-2.744,0 V68c0-0.773-0.627-1.4-1.4-1.4h-4c-0.773,0-1.4,0.627-1.4,1.4v0.599L27,68.6c-0.881,0-1.599-0.718-1.6-1.6l0-34 c0-0.882,0.718-1.6,1.6-1.6h46c0.882,0,1.6,0.718,1.6,1.6V40z"/><path fill="#e1e0d8" d="M53 57.25c.414 0 .75.336.75.75v2c0 .414-.336.75-.75.75s-.75-.336-.75-.75v-2C52.25 57.586 52.586 57.25 53 57.25M57 57.25c.414 0 .75.336.75.75v2c0 .414-.336.75-.75.75s-.75-.336-.75-.75v-2C56.25 57.586 56.586 57.25 57 57.25M61 57.25c.414 0 .75.336.75.75v2c0 .414-.336.75-.75.75s-.75-.336-.75-.75v-2C60.25 57.586 60.586 57.25 61 57.25M65 57.25c.414 0 .75.336.75.75v2c0 .414-.336.75-.75.75s-.75-.336-.75-.75v-2C64.25 57.586 64.586 57.25 65 57.25M69 57.25c.414 0 .75.336.75.75v2c0 .414-.336.75-.75.75s-.75-.336-.75-.75v-2C68.25 57.586 68.586 57.25 69 57.25"/><path fill="#472b29" d="M53 57.5c.276 0 .5.224.5.5v2c0 .276-.224.5-.5.5s-.5-.224-.5-.5v-2C52.5 57.724 52.724 57.5 53 57.5M53 57c-.552 0-1 .448-1 1 0 .346 0 1.649 0 2 0 .552.448 1 1 1s1-.448 1-1c0-.351 0-1.654 0-2C54 57.448 53.552 57 53 57L53 57zM57 57.5c.276 0 .5.224.5.5v2c0 .276-.224.5-.5.5s-.5-.224-.5-.5v-2C56.5 57.724 56.724 57.5 57 57.5M57 57c-.552 0-1 .448-1 1 0 .346 0 1.649 0 2 0 .552.448 1 1 1s1-.448 1-1c0-.351 0-1.654 0-2C58 57.448 57.552 57 57 57L57 57zM61 57.5c.276 0 .5.224.5.5v2c0 .276-.224.5-.5.5s-.5-.224-.5-.5v-2C60.5 57.724 60.724 57.5 61 57.5M61 57c-.552 0-1 .448-1 1 0 .346 0 1.649 0 2 0 .552.448 1 1 1s1-.448 1-1c0-.351 0-1.654 0-2C62 57.448 61.552 57 61 57L61 57zM65 57.5c.276 0 .5.224.5.5v2c0 .276-.224.5-.5.5s-.5-.224-.5-.5v-2C64.5 57.724 64.724 57.5 65 57.5M65 57c-.552 0-1 .448-1 1 0 .346 0 1.649 0 2 0 .552.448 1 1 1s1-.448 1-1c0-.351 0-1.654 0-2C66 57.448 65.552 57 65 57L65 57zM69 57.5c.276 0 .5.224.5.5v2c0 .276-.224.5-.5.5s-.5-.224-.5-.5v-2C68.5 57.724 68.724 57.5 69 57.5M69 57c-.552 0-1 .448-1 1 0 .346 0 1.649 0 2 0 .552.448 1 1 1s1-.448 1-1c0-.351 0-1.654 0-2C70 57.448 69.552 57 69 57L69 57z"/><path fill="#f1d2cd" d="M30.5 38.5H47.5V60.5H30.5z"/><g><path fill="#472b29" d="M44.144,47.647c-0.043-0.162-0.161-0.286-0.292-0.363c-0.012-0.007-0.025-0.013-0.038-0.019 c0.004-0.011,0.008-0.022,0.011-0.034c0.045-0.101,0.066-0.209,0.062-0.324v-0.062c-0.001-0.157-0.038-0.303-0.11-0.438 c-0.04-0.056-0.08-0.112-0.12-0.168c0.02-0.02,0.04-0.042,0.058-0.065c0.072-0.08,0.121-0.173,0.148-0.279 c0.042-0.099,0.06-0.204,0.054-0.315v-0.062c-0.004-0.152-0.042-0.293-0.113-0.422c-0.043-0.058-0.086-0.117-0.129-0.175 c-0.03-0.031-0.062-0.057-0.095-0.082c0.02-0.016,0.04-0.032,0.06-0.048c0.123-0.118,0.182-0.298,0.195-0.473 c0.007-0.094-0.007-0.182-0.043-0.265c-0.022-0.091-0.064-0.17-0.126-0.238c-0.055-0.069-0.121-0.119-0.197-0.15 c-0.07-0.044-0.147-0.066-0.229-0.067h-0.056c-0.006,0-0.011,0.001-0.017,0c0.079-0.171,0.118-0.363,0.101-0.54 c-0.05-0.504-0.419-0.787-0.837-0.826c0.003-0.027,0.007-0.053,0.008-0.081c0.024-0.529-0.374-1.068-0.87-1.068 c-0.132,0-0.26,0.028-0.377,0.08c-0.105-0.385-0.444-0.605-0.81-0.605c-0.113,0-0.218,0.037-0.311,0.098 c-0.002-0.003-0.002-0.007-0.004-0.01c-0.032-0.051-0.064-0.102-0.096-0.152c-0.108-0.144-0.276-0.214-0.439-0.233 c-0.09-0.009-0.174,0.006-0.254,0.047c-0.083,0.024-0.156,0.07-0.219,0.138c-0.044,0.041-0.08,0.089-0.107,0.142 c-0.028-0.053-0.063-0.101-0.107-0.142c-0.063-0.068-0.136-0.114-0.219-0.138c-0.08-0.041-0.165-0.056-0.254-0.047 c-0.163,0.019-0.331,0.089-0.439,0.233c-0.032,0.051-0.064,0.102-0.096,0.152c-0.002,0.003-0.003,0.007-0.004,0.01 c-0.093-0.061-0.198-0.098-0.311-0.098c-0.366,0-0.704,0.22-0.81,0.605c-0.117-0.051-0.245-0.08-0.377-0.08 c-0.496,0-0.894,0.539-0.87,1.068c0.001,0.028,0.005,0.054,0.008,0.081c-0.418,0.039-0.786,0.322-0.837,0.826 c-0.018,0.176,0.021,0.369,0.101,0.54c-0.006,0-0.011-0.001-0.017,0h-0.056c-0.082,0.001-0.159,0.023-0.229,0.067 c-0.077,0.03-0.142,0.08-0.197,0.15c-0.062,0.068-0.103,0.147-0.126,0.238c-0.035,0.083-0.05,0.172-0.043,0.265 c0.014,0.175,0.072,0.355,0.195,0.473c0.02,0.016,0.04,0.032,0.06,0.048c-0.033,0.024-0.065,0.051-0.095,0.082 c-0.043,0.058-0.086,0.117-0.129,0.175c-0.072,0.13-0.096,0.252-0.1,0.404v0.062c-0.006,0.111-0.001,0.234,0.041,0.333 c0.027,0.106,0.077,0.199,0.148,0.279c0.018,0.024,0.038,0.045,0.058,0.065c-0.04,0.056-0.08,0.112-0.12,0.168 c-0.072,0.135-0.108,0.281-0.11,0.438v0.062c-0.004,0.115,0.016,0.223,0.062,0.324c0.003,0.012,0.008,0.022,0.011,0.034 c-0.013,0.006-0.025,0.011-0.038,0.019c-0.131,0.077-0.249,0.201-0.293,0.363c-0.041,0.155-0.043,0.324,0.024,0.472 c0.019,0.042,0.038,0.083,0.056,0.125c0.066,0.147,0.186,0.271,0.327,0.324c0.059,0.025,0.118,0.034,0.179,0.031 c0.009,0.046,0.024,0.09,0.047,0.131c0.025,0.072,0.066,0.133,0.121,0.182c0.051,0.052,0.109,0.088,0.174,0.107 c0.063,0.031,0.129,0.043,0.198,0.035c0.015-0.002,0.031-0.004,0.046-0.007c-0.06,0.11-0.095,0.233-0.095,0.367v0.062 c-0.003,0.099,0.016,0.191,0.057,0.276c0.027,0.09,0.072,0.167,0.137,0.232c0.059,0.068,0.128,0.115,0.207,0.143 c0.075,0.042,0.155,0.061,0.24,0.058c0.057-0.009,0.113-0.017,0.17-0.026c0.017-0.005,0.033-0.013,0.049-0.019 c0.003,0.062,0.014,0.123,0.034,0.182c0.018,0.104,0.059,0.198,0.121,0.281c0.059,0.09,0.132,0.158,0.222,0.203 c0.083,0.063,0.175,0.099,0.278,0.108c0.064-0.001,0.127-0.003,0.191-0.004c0.055-0.009,0.106-0.026,0.156-0.047 c0.02,0.048,0.046,0.092,0.078,0.133c0.052,0.076,0.117,0.133,0.195,0.171c0.073,0.053,0.154,0.083,0.243,0.089 c0.058-0.002,0.116-0.005,0.174-0.007c0.079-0.016,0.153-0.046,0.22-0.091c0.146,0.267,0.401,0.46,0.764,0.46 c0.244,0,0.435-0.088,0.575-0.226c0.14,0.138,0.33,0.226,0.575,0.226c0.363,0,0.618-0.193,0.764-0.46 c0.067,0.044,0.141,0.075,0.22,0.091c0.058,0.002,0.116,0.005,0.174,0.007c0.089-0.006,0.17-0.036,0.243-0.089 c0.078-0.038,0.142-0.095,0.195-0.171c0.033-0.041,0.058-0.086,0.078-0.133c0.05,0.021,0.102,0.038,0.156,0.047 c0.064,0.001,0.127,0.003,0.191,0.004c0.102-0.009,0.195-0.045,0.278-0.108c0.089-0.045,0.163-0.113,0.222-0.203 c0.063-0.083,0.103-0.177,0.121-0.281c0.02-0.059,0.031-0.12,0.034-0.182c0.016,0.007,0.032,0.014,0.049,0.019 c0.057,0.009,0.113,0.017,0.17,0.026c0.086,0.004,0.166-0.016,0.24-0.058c0.079-0.027,0.148-0.075,0.207-0.143 c0.065-0.065,0.11-0.142,0.137-0.232c0.041-0.085,0.06-0.177,0.057-0.276v-0.062c0-0.134-0.035-0.257-0.095-0.367 c0.015,0.003,0.031,0.005,0.046,0.007c0.07,0.007,0.136-0.005,0.198-0.035c0.066-0.019,0.124-0.054,0.174-0.107 c0.055-0.05,0.096-0.11,0.121-0.182c0.023-0.041,0.038-0.085,0.047-0.131c0.061,0.004,0.12-0.006,0.179-0.031 c0.142-0.054,0.261-0.177,0.327-0.324c0.019-0.042,0.038-0.083,0.056-0.125C44.187,47.971,44.185,47.802,44.144,47.647z"/><path fill="#ce9065" d="M45.75,60.5c0-2.5-0.492-4.054-1-4.375s-3.375-1.25-3.625-1.375S40.75,54,40.75,52.5h-3.5 c0,1.5-0.125,2.125-0.375,2.25s-3.117,1.054-3.625,1.375s-1,1.875-1,4.375H45.75z"/><path fill="#ee3e54" d="M44.75,56.125c-0.353-0.223-1.844-0.739-2.805-1.076C41.716,55.248,40.736,56,39,56 s-2.716-0.752-2.945-0.951c-0.961,0.336-2.452,0.853-2.805,1.076c-0.508,0.321-1,1.875-1,4.375h13.5 C45.75,58,45.258,56.446,44.75,56.125z"/><path fill="#fdfcef" d="M39,56c-2,0-3-1-3-1l1.625,5.5h2.75L42,55C42,55,41,56,39,56z"/><path fill="#472b29" d="M46,60.75H32V60.5c0-2.358,0.438-4.159,1.116-4.586c0.334-0.21,1.427-0.6,2.714-1.05 c0.424-0.148,0.862-0.302,0.934-0.337C36.818,54.491,37,54.239,37,52.5v-0.25h4v0.25c0,1.739,0.182,1.991,0.237,2.027 c0.07,0.035,0.509,0.188,0.933,0.336c1.287,0.45,2.38,0.84,2.714,1.05C45.562,56.341,46,58.142,46,60.5V60.75z M32.502,60.25 h12.996c-0.033-2.461-0.551-3.705-0.882-3.914c-0.312-0.197-1.751-0.7-2.611-1.001c-0.587-0.205-0.897-0.314-0.991-0.362 c-0.311-0.155-0.496-0.578-0.513-2.224h-3.002c-0.017,1.646-0.202,2.069-0.513,2.224c-0.094,0.047-0.404,0.157-0.991,0.362 c-0.86,0.301-2.3,0.804-2.611,1.001C33.053,56.545,32.535,57.789,32.502,60.25z"/><path fill="#db9e71" d="M44.173,48.462c0.058-0.199,0.107-0.394,0.176-0.588c0.09-0.254,0.026-0.416-0.255-0.573 c-0.013-0.007-0.024-0.016-0.034-0.024c-0.045-0.007-0.088-0.013-0.125-0.017c-0.253-0.03-0.702-0.043-0.833-0.306 c-0.148-0.299-0.075-0.616-0.036-0.931c0.042-0.347-0.088-0.681-0.089-1.027c-0.023-0.034-0.04-0.074-0.045-0.122 c-0.052-0.511-0.201-0.999-0.4-1.471c-0.699-0.927-2.005-1.553-3.5-1.553c-2.229,0-4.042,1.39-4.042,3.099 c0,0.081,0.005,0.161,0.013,0.24c-0.022,0.309-0.051,0.584-0.037,0.922c0.013,0.299-0.031,0.521-0.002,0.916 c0.016,0.223-0.085,0.079-0.441,0.097c-0.046,0-0.089,0-0.133,0.003c-0.39,0.026-0.705,0.277-0.773,0.588 c0.048,0.029,0.086,0.076,0.103,0.146c0.142,0.577,0.122,1.244,0.41,1.781c0.161,0.299,0.411,0.341,0.669,0.534 c0.143,0.107,0.17,0.228,0.209,0.388c0.144,0.593,0.546,1.096,0.985,1.526c0.223,0.218,0.462,0.414,0.703,0.612 c0.2,0.164,0.41,0.354,0.658,0.452c0.083,0.033,0.134,0.091,0.159,0.157c0.164,0.088,0.397,0.212,0.397,0.21 c0.794,0.319,1.555,0.346,2.359-0.015c0,0.003,0,0.006,0,0.009c0.004-0.003,0.391-0.19,0.549-0.277 c0.012-0.017,0.027-0.034,0.046-0.05c0.243-0.206,0.513-0.378,0.764-0.575c0.206-0.162,0.375-0.341,0.534-0.536 c-0.037-0.084,0.045-0.012,0.121-0.1c0.356-0.414,0.691-1.066,0.749-1.597c0.003-0.027,0.023-0.047,0.037-0.067 c-0.046-0.147,0.068-0.228,0.279-0.233c0.19-0.005,0.303-0.22,0.449-0.324C43.905,49.338,44.053,48.874,44.173,48.462z"/><path fill="#8e7469" d="M43.209,48.114c0.005-0.068,0.006-0.135-0.002-0.202 l0.504,0.098l-0.183,0.915l-0.203-0.037l0.144-0.723L43.209,48.114z" opacity=".8"/><path fill="#472b29" d="M43.89,47.134c-0.173-0.044-0.357-0.048-0.552-0.072c0-0.021-0.05,0.022-0.05,0.001 c-0.123-0.012-0.188-0.157-0.19-0.309c-0.004-0.306-0.042-0.642-0.014-0.963c0.008-0.29-0.044-0.475-0.1-0.68 c0.009-0.084,0.014-0.169,0.014-0.255c0-1.756-1.813-3.185-4.042-3.185s-4.042,1.429-4.042,3.185c0,0.083,0.005,0.165,0.013,0.247 c-0.022,0.317-0.051,0.6-0.037,0.948c0.013,0.307-0.031,0.536-0.002,0.942c0.016,0.229-0.085,0.081-0.441,0.099 c-0.046,0-0.089,0.001-0.133,0.003c-0.483,0.033-0.853,0.422-0.776,0.842c0.089,0.487,0.195,0.971,0.316,1.452 c0.119,0.476,0.354,0.865,0.924,0.921c0.073,0.619,0.205,0.933,0.594,1.421c0.53,0.663,1.158,1.227,1.917,1.639 c0.079,0.043,0.545,0.301,0.545,0.297c0.794,0.328,1.555,0.356,2.359-0.016c0,0.003,0,0.006,0,0.009 c0.005-0.003,0.506-0.252,0.6-0.316c0.381-0.256,0.769-0.512,1.104-0.818c0.664-0.607,1.291-1.249,1.357-2.219 c0.563-0.051,0.797-0.435,0.917-0.899c0.118-0.455,0.203-0.918,0.298-1.378C44.562,47.588,44.348,47.25,43.89,47.134z M34.778,49.975c-0.282,0.007-0.469-0.104-0.568-0.42c-0.136-0.433-0.338-1.336-0.34-1.343c-0.213-0.658,0.19-0.95,0.908-0.812 v0.382c-0.003,0-0.007,0.317,0,0.319V49.975z M42.943,50.427c-0.002,0.171-0.03,0.363-0.116,0.508 c-0.788,1.334-1.897,2.304-3.486,2.689c-0.551,0.134-1.068-0.058-1.547-0.288c-1.004-0.481-1.808-1.188-2.422-2.088 c-0.201-0.295-0.309-0.611-0.293-0.974c0.02-0.479,0.005-0.959,0.005-1.438c0-0.059,0.005-0.118-0.001-0.177 c-0.118-1.316,0.156-3.755,0.156-3.803c0-1.585,1.667-2.875,3.717-2.875c2.049,0,3.784,1.29,3.784,2.875 c0,0.032,0.013,0.071,0.012,0.103c0.141,0.134,0.037,1.416,0.183,2.062c0.016,0.073,0.014,0.151,0.014,0.226 C42.949,48.307,42.954,49.367,42.943,50.427z M44.206,47.92c-0.104,0.552-0.232,1.101-0.387,1.642 c-0.087,0.306-0.252,0.398-0.565,0.427v-1.884c0,0,0.001,0,0.002-0.001c0-0.006-0.001-0.011-0.001-0.018v-0.398 c-0.002-0.001-0.004-0.002-0.007-0.003v-0.318c0.168,0,0.325-0.01,0.479,0.002C44.04,47.395,44.262,47.623,44.206,47.92z"/><path fill="#8e7469" d="M34.851,48.278c-0.005-0.071-0.006-0.142,0.002-0.212 l-0.53,0.102l0.192,0.962l0.214-0.039l-0.152-0.76L34.851,48.278z" opacity=".8"/><path fill="#472b29" d="M38.991,49.967c0.268,0,0.527-0.117,0.695-0.313 c0.017-0.02,0.015-0.049-0.005-0.066l0,0c-0.02-0.017-0.049-0.015-0.066,0.005c-0.136,0.156-0.363,0.245-0.623,0.245 c-0.26,0-0.487-0.089-0.623-0.245c-0.009-0.011-0.022-0.016-0.036-0.016c-0.011,0-0.022,0.004-0.031,0.011 c-0.02,0.017-0.022,0.047-0.005,0.066C38.464,49.85,38.724,49.967,38.991,49.967z" opacity=".49"/><path fill="#472b29" d="M38.137 46.348l.17-.326c-.719-.168-1.546-.142-2.229.07l.214.318C36.854 46.225 37.544 46.201 38.137 46.348zM41.735 46.348l.17-.326c-.719-.168-1.546-.142-2.229.07l.214.318C40.451 46.225 41.142 46.201 41.735 46.348zM37.103 46.809c-.173 0-.324.114-.412.287.022-.007.044-.012.068-.012.142 0 .256.128.256.286s-.115.286-.256.286c-.046 0-.089-.015-.127-.039.061.259.248.448.47.448.271 0 .491-.281.491-.628S37.374 46.809 37.103 46.809zM40.859 46.809c-.147 0-.279.083-.369.215.028-.012.058-.019.09-.019.142 0 .256.128.256.286s-.115.286-.256.286c-.088 0-.165-.049-.211-.125.006.34.223.613.49.613.271 0 .491-.281.491-.628S41.131 46.809 40.859 46.809z"/><path fill="#472b29" d="M41.068,50.695c0.02-0.016,0.023-0.046,0.007-0.066l0,0 c-0.016-0.02-0.046-0.023-0.066-0.007c-0.443,0.353-1.178,0.555-2.017,0.555s-1.574-0.202-2.017-0.555 c-0.009-0.007-0.019-0.01-0.029-0.01c-0.014,0-0.027,0.006-0.037,0.018c-0.016,0.02-0.013,0.05,0.007,0.066 c0.5,0.408,1.276,0.652,2.076,0.652C39.792,51.348,40.568,51.104,41.068,50.695z" opacity=".49"/><path fill="#472b29" d="M35.11 45.801c.184-.852.485-1.676.896-2.436-.129-.195-.369-.246-.592-.19-.66 1.054-.81 2.386-.826 3.315.032.543.117 1.076.277 1.557C34.994 47.307 34.949 46.546 35.11 45.801zM42.826 45.801c-.184-.852-.485-1.676-.896-2.436.129-.195.369-.246.592-.19.66 1.054.81 2.386.826 3.315-.032.543-.117 1.076-.277 1.557C42.941 47.307 42.987 46.546 42.826 45.801z"/><path fill="#472b29" d="M43.452,46.04c0.185-1.921-0.37-3.017-0.778-3.558c-0.991-0.821-2.309-1.322-3.756-1.322 c-1.207,0-2.323,0.349-3.235,0.94c-0.767,0.782-1.668,2.209-1.214,3.939c0.032,0.543,0.229,2.053,0.389,2.534 c0.129-0.74,0.084-2.477,0.245-3.222c0.118-0.547,0.285-1.082,0.497-1.596c1.078-1.188,5.557-1.134,6.721,0 c0.213,0.514,0.379,1.049,0.497,1.596c0.161,0.746,0.116,2.483,0.245,3.222C43.223,48.093,43.42,46.583,43.452,46.04z"/><g><path fill="#f1bc19" d="M38.498 47.049c-.77-.938-3.673-.273-3.676-.273.053.212.1.421.141.628.216.022.228.506.25.684.104.856.677 1.486 1.882 1.457 1.208-.063 1.49-.937 1.54-1.488C38.69 47.456 38.497 47.051 38.498 47.049zM38.36 48.1c-.062.767-.533 1.216-1.294 1.252-.077.004-.152.005-.224.002-1.2-.002-1.405-1.052-1.429-1.716-.015-.38.256-.705.639-.743.22-.022.468-.022.754-.022.896 0 1.287.214 1.39.385C38.259 47.361 38.395 47.684 38.36 48.1zM39.348 48.057c.05.55.332 1.425 1.54 1.488 1.205.03 1.778-.601 1.882-1.457.021-.177.034-.661.25-.684.042-.207.088-.416.141-.628-.003.001-2.906-.665-3.676.273C39.486 47.051 39.293 47.456 39.348 48.057zM39.785 47.259c.104-.172.494-.385 1.39-.385.286 0 .534 0 .754.022.383.038.654.363.639.743-.024.664-.229 1.714-1.429 1.716-.071.003-.147.002-.224-.002-.761-.037-1.232-.486-1.294-1.252C39.588 47.684 39.724 47.361 39.785 47.259z"/><path fill="#f1bc19" d="M39.512,47.786c0,0-0.197-0.155-0.541-0.155c-0.323,0-0.5,0.155-0.5,0.155 c-0.053-0.145-0.105-0.291-0.158-0.436c0.453,0,0.905,0,1.358,0C39.617,47.496,39.565,47.641,39.512,47.786z"/></g></g><path fill="#472b29" d="M47.5,61h-17c-0.276,0-0.5-0.224-0.5-0.5v-22c0-0.276,0.224-0.5,0.5-0.5h17 c0.276,0,0.5,0.224,0.5,0.5v22C48,60.776,47.776,61,47.5,61z M31,60h16V39H31V60z"/><g><path fill="#472b29" d="M64.75 53h-12.5C52.112 53 52 52.888 52 52.75s.112-.25.25-.25h12.5c.138 0 .25.112.25.25S64.888 53 64.75 53zM69.75 49h-17.5C52.112 49 52 48.888 52 48.75s.112-.25.25-.25h17.5c.138 0 .25.112.25.25S69.888 49 69.75 49zM69.75 45h-17.5C52.112 45 52 44.888 52 44.75s.112-.25.25-.25h17.5c.138 0 .25.112.25.25S69.888 45 69.75 45z"/></g></g></svg>