<svg xmlns="http://www.w3.org/2000/svg" viewBox="0 0 100 100" width="50px" height="50px"><circle cx="78" cy="14" r="1" fill="#f1bc19"/><circle cx="50" cy="50" r="38" fill="#f9dbd2"/><circle cx="84" cy="16" r="4" fill="#f1bc19"/><circle cx="14" cy="26" r="2" fill="#ee3e54"/><circle cx="78" cy="77" r="2" fill="#fbcd59"/><circle cx="17" cy="78" r="4" fill="#fbcd59"/><circle cx="24" cy="83" r="2" fill="#ee3e54"/><circle cx="66.483" cy="78.517" r="2.483" fill="#fff"/><circle cx="16" cy="48" r="1" fill="#fff"/><circle cx="86" cy="31" r="1" fill="#f1bc19"/><circle cx="80" cy="66" r="2" fill="#fff"/><g><path fill="#ee3e54" d="M49.164,74.3c-8.315,0-15.5-4.857-18.752-12.677c-3.63-8.729-1.436-18.625,5.725-25.826 c0.13-0.131,0.276-0.158,0.375-0.158c0.245,0,0.516,0.164,0.561,0.477c0.305,2.111,1.036,5.124,2.791,7.481l0.265,0.355 l0.435-0.087c8.625-1.738,12.261-12.984,11.57-20.434c-0.019-0.203,0.063-0.341,0.136-0.42c0.105-0.115,0.259-0.184,0.41-0.184 c0.099,0,0.194,0.027,0.286,0.082C58.478,26.217,71.3,35.563,71.3,50.893C71.3,73.644,51.43,74.3,49.164,74.3z"/><path fill="#472b29" d="M52.855,23.662C58.393,27.035,70.6,36.149,70.6,50.893c0,22.07-19.242,22.707-21.436,22.707 c-8.027,0-14.965-4.692-18.106-12.246c-2.735-6.577-2.743-16.529,5.364-24.849c0.341,2.172,1.116,5.141,2.878,7.509l0.53,0.712 l0.87-0.175C49.613,42.755,53.447,31.373,52.855,23.662 M36.633,36.291h0.005H36.633 M52.679,22.128 c-0.691,0-1.316,0.588-1.243,1.369c0.618,6.666-2.623,17.991-11.011,19.682c-1.668-2.241-2.367-5.133-2.659-7.163 c-0.096-0.665-0.668-1.077-1.254-1.077c-0.308,0-0.621,0.114-0.87,0.365C20.131,50.899,30.046,75,49.164,75 C55.121,75,72,72.107,72,50.893c0-15.735-13.17-25.28-18.676-28.583C53.115,22.184,52.894,22.128,52.679,22.128L52.679,22.128z"/></g><g><path fill="#472b29" d="M67.61,47.161c-0.236,0-0.446-0.168-0.49-0.409c-0.603-3.242-1.931-6.375-3.948-9.313 c-0.156-0.228-0.099-0.539,0.129-0.695c0.229-0.156,0.539-0.098,0.695,0.129c2.098,3.054,3.479,6.315,4.106,9.697 c0.051,0.271-0.129,0.532-0.4,0.582C67.672,47.158,67.641,47.161,67.61,47.161z"/></g><g><path fill="#472b29" d="M41.5,48c-0.23,0-0.438-0.16-0.488-0.396c-0.058-0.27,0.114-0.535,0.384-0.594 c2.035-0.436,3.888-1.17,5.509-2.182c0.233-0.148,0.542-0.075,0.689,0.159c0.146,0.234,0.075,0.543-0.16,0.688 c-1.719,1.073-3.68,1.852-5.828,2.313C41.569,47.996,41.534,48,41.5,48z"/></g><g><path fill="#472b29" d="M50.041,43.458c-0.127,0-0.255-0.049-0.352-0.146c-0.196-0.194-0.197-0.511-0.003-0.707 c5.349-5.389,5.518-13.416,5.519-13.497c0.003-0.188,0.11-0.358,0.279-0.441c0.167-0.086,0.368-0.065,0.52,0.048 c1.947,1.453,3.715,3.044,5.256,4.728c0.187,0.204,0.172,0.521-0.031,0.707c-0.205,0.186-0.521,0.171-0.707-0.031 c-1.3-1.422-2.768-2.775-4.373-4.034c-0.208,2.379-1.185,8.624-5.752,13.227C50.298,43.409,50.169,43.458,50.041,43.458z"/></g><g><path fill="#472b29" d="M32.378,57.024c-0.234,0-0.442-0.165-0.49-0.402c-1.019-5.121-0.015-10.454,2.827-15.019 c0.146-0.233,0.455-0.306,0.688-0.16c0.234,0.146,0.306,0.455,0.16,0.689c-2.706,4.347-3.663,9.423-2.695,14.294 c0.054,0.271-0.122,0.534-0.393,0.588C32.443,57.021,32.41,57.024,32.378,57.024z"/></g><g><path fill="#472b29" d="M49.316,71.5c-6.373,0-12.083-3.379-15.273-9.04c-0.454-0.804-0.854-1.652-1.192-2.523 c-0.1-0.258,0.028-0.547,0.286-0.646c0.259-0.102,0.547,0.027,0.647,0.285c0.32,0.826,0.7,1.632,1.13,2.394 c3.056,5.422,8.305,8.531,14.402,8.531c1.861,0,18.184-0.55,18.184-19.589c0-0.276,0.224-0.5,0.5-0.5s0.5,0.224,0.5,0.5 C68.5,70.922,51.279,71.5,49.316,71.5z"/></g></svg>