<svg xmlns="http://www.w3.org/2000/svg" viewBox="0 0 100 100" width="200px" height="200px"><circle cx="78" cy="14" r="1" fill="#f1bc19"/><circle cx="50" cy="50" r="38" fill="#f9dbd2"/><circle cx="84" cy="16" r="4" fill="#f1bc19"/><circle cx="14" cy="26" r="2" fill="#ee3e54"/><circle cx="78" cy="77" r="2" fill="#fbcd59"/><circle cx="17" cy="78" r="4" fill="#fbcd59"/><circle cx="24" cy="83" r="2" fill="#ee3e54"/><circle cx="64.483" cy="78.517" r="2.483" fill="#fff"/><circle cx="16" cy="48" r="1" fill="#fff"/><circle cx="86" cy="31" r="1" fill="#f1bc19"/><circle cx="84" cy="45" r="2" fill="#fff"/><circle cx="50" cy="49.875" r="24.25" fill="#fbb03b"/><path fill="#472b29" d="M50,74.825c-13.758,0-24.95-11.193-24.95-24.95S36.242,24.925,50,24.925s24.95,11.193,24.95,24.95 S63.758,74.825,50,74.825z M50,26.325c-12.985,0-23.55,10.564-23.55,23.55S37.015,73.425,50,73.425s23.55-10.564,23.55-23.55 S62.985,26.325,50,26.325z"/><g><ellipse cx="49.937" cy="50" fill="#e0fcf8" rx="20.437" ry="20.375"/></g><g><path fill="#472b29" d="M69.424,44.625c-0.214,0-0.411-0.138-0.478-0.353c-0.089-0.287-0.184-0.572-0.284-0.854 c-0.391-1.091-0.886-2.157-1.47-3.168c-0.139-0.239-0.057-0.545,0.183-0.683c0.236-0.138,0.544-0.057,0.683,0.183 c0.615,1.063,1.135,2.184,1.546,3.331c0.106,0.296,0.205,0.595,0.298,0.897c0.082,0.264-0.066,0.544-0.33,0.625 C69.522,44.618,69.473,44.625,69.424,44.625z"/></g><g><path fill="#512c2b" d="M48.558,42.982l0.261-0.501c-1.104-0.259-2.375-0.217-3.424,0.108l0.329,0.489 C46.586,42.792,47.647,42.756,48.558,42.982z"/></g><g><path fill="#512c2b" d="M54.085,42.982l0.261-0.501c-1.104-0.259-2.375-0.217-3.424,0.108l0.329,0.489 C52.113,42.792,53.174,42.756,54.085,42.982z"/></g><g><path fill="#00a5a5" d="M41.816,68.639c-0.166,0-0.3-0.134-0.3-0.3v-2.38c0-0.166,0.134-0.3,0.3-0.3s0.3,0.134,0.3,0.3v2.38 C42.116,68.504,41.982,68.639,41.816,68.639z"/></g><g><path fill="#00a5a5" d="M57.682,69.057c-0.166,0-0.3-0.134-0.3-0.3v-2.799c0-0.166,0.134-0.3,0.3-0.3s0.3,0.134,0.3,0.3 v2.799C57.981,68.923,57.848,69.057,57.682,69.057z"/></g><g><path fill="#77cbd2" d="M62.167,65.298c-0.121-2.545-0.334-4.026-0.334-4.026c-0.244-1.293-0.771-2.051-2.014-2.426 c-0.054-0.016-0.126-0.043-0.208-0.074c-0.094-0.041-0.213-0.089-0.353-0.143c-0.753-0.318-5.226-1.969-5.226-1.969 c-0.369-0.094-0.609-0.356-0.747-0.652c-0.16-0.341-0.165-1.055-0.153-1.459c0.73-0.553,1.282-1.085,1.438-1.236 c0.719-0.695,1.375-1.51,1.611-2.468c0.064-0.259,0.109-0.454,0.342-0.627c0.421-0.313,0.831-0.38,1.094-0.864 c0.47-0.867,0.76-3.068,0.839-3.115c-0.11-0.502-0.626-0.908-1.263-0.951c-0.07-0.005-0.142-0.005-0.217-0.005 c-0.582-0.028-0.532,0.191-0.506-0.169c0.047-0.639-0.257-3.218-0.257-3.348c0-2.686-2.146-5.893-5.649-6.015 c0,0-2.226-0.126-2.25-0.125c-3.25,1.25-5.187,3.502-5.187,6.188c0,0.131-0.109,2.674-0.063,3.313 c0.026,0.36,0.213,0.128-0.369,0.157c-0.074,0-0.146,0.001-0.217,0.005c-0.638,0.042-1.154,0.448-1.263,0.951 c0.078,0.048,0.368,2.248,0.839,3.115c0.262,0.484,0.672,0.552,1.094,0.864c0.233,0.173,0.278,0.368,0.342,0.627 c0.236,0.958,0.892,1.773,1.611,2.468c0.152,0.146,0.67,0.689,1.369,1.252c-0.024,0.543-0.061,1.19-0.103,1.413 c-0.061,0.319-0.405,0.589-0.774,0.683l-4.293,1.557c-0.475,0.124-0.931,0.301-1.331,0.549c-1.08,0.667-1.628,1.668-1.906,2.507 c0,0-0.283,1.998-0.271,2.07c-0.027,0.28-0.055,0.587-0.082,0.911c0.019,0.013,0.038,0.024,0.057,0.037 c-0.012,0.635-0.024,1.455-0.036,2.028c3.405,2.544,7.625,4.058,12.209,4.058c4.555,0,8.753-1.494,12.147-4.01 c-0.016-0.332-0.032-0.67-0.049-1.006C62.077,65.339,62.128,65.318,62.167,65.298z"/></g><g><path fill="#472b29" d="M49.906,56.29c-1.316,0-3.496-1.592-3.593-1.662c-0.111-0.082-0.135-0.238-0.053-0.349 c0.082-0.112,0.238-0.134,0.35-0.053c0.638,0.469,2.515,1.662,3.401,1.56c1.128-0.128,2.956-1.415,2.975-1.428 c0.112-0.08,0.269-0.053,0.349,0.059c0.08,0.113,0.053,0.269-0.06,0.348c-0.079,0.056-1.951,1.375-3.207,1.517 C50.016,56.287,49.962,56.29,49.906,56.29z"/></g><g><path fill="#472b29" d="M50,70.75c-11.511,0-20.875-9.336-20.875-20.813S38.489,29.125,50,29.125 c5.975,0,11.674,2.56,15.636,7.023c0.3,0.337,0.588,0.684,0.865,1.041c0.17,0.218,0.131,0.532-0.088,0.702 c-0.217,0.169-0.531,0.131-0.701-0.088c-0.264-0.339-0.538-0.669-0.824-0.99c-3.772-4.25-9.199-6.687-14.888-6.687 c-10.959,0-19.875,8.888-19.875,19.813S39.041,69.75,50,69.75s19.875-8.888,19.875-19.813c0-0.993-0.074-1.993-0.222-2.973 c-0.041-0.273,0.146-0.528,0.42-0.569c0.273-0.04,0.527,0.146,0.568,0.42c0.155,1.029,0.233,2.079,0.233,3.121 C70.875,61.414,61.511,70.75,50,70.75z"/></g><g><path fill="#472b29" d="M62.129,66.811c-0.266,0-0.486-0.208-0.499-0.476c-0.122-2.528-0.296-4.92-0.296-4.92 c-0.217-1.131-0.668-1.684-1.659-1.983c-0.063-0.019-0.146-0.049-0.241-0.085c-0.11-0.047-0.224-0.093-0.356-0.144 c-0.747-0.316-5.174-1.95-5.218-1.966c-0.422-0.104-0.805-0.432-1.028-0.909c-0.055-0.119-0.224-0.479-0.202-1.605 c0.003-0.158,0.081-0.306,0.21-0.398c0.733-0.522,1.278-0.974,1.382-1.075c0.827-0.81,1.296-1.527,1.475-2.256 c0.073-0.304,0.153-0.636,0.527-0.916c0.154-0.116,0.308-0.204,0.455-0.287c0.263-0.148,0.394-0.228,0.498-0.423 c0.426-0.794,0.753-2.31,0.777-2.856c-0.089-0.275-0.42-0.495-0.795-0.521c-0.061-0.004-0.121-0.004-0.184-0.004l-0.254-0.013 c-0.265-0.016-0.471-0.234-0.471-0.499V42.5c0-3.515-2.859-6.375-6.375-6.375H49.75c-3.516,0-6.375,2.86-6.375,6.375v2.992 c0,0.137-0.056,0.268-0.155,0.362c-0.099,0.094-0.219,0.144-0.369,0.137c0.001,0-0.149-0.007-0.157-0.007 c-0.063,0-0.123,0-0.183,0.004c-0.376,0.025-0.707,0.245-0.796,0.521c0.024,0.553,0.367,2.09,0.777,2.856 c0.104,0.194,0.235,0.274,0.498,0.423c0.147,0.083,0.301,0.171,0.455,0.287c0.374,0.28,0.454,0.612,0.525,0.904 c0.181,0.741,0.649,1.458,1.478,2.268c0.093,0.09,0.587,0.486,1.308,0.989c0.141,0.098,0.221,0.261,0.213,0.432 c-0.053,1.195-0.098,1.43-0.112,1.507c-0.11,0.57-0.653,0.95-1.143,1.074l-4.244,1.542c-0.506,0.135-0.908,0.3-1.239,0.504 c-0.964,0.594-1.363,1.018-1.687,2.212c-0.266,0.981-0.306,3.136-0.322,4.057c-0.005,0.269-0.01,0.459-0.016,0.529 c-0.022,0.276-0.265,0.478-0.54,0.456c-0.275-0.023-0.479-0.265-0.456-0.54c0.005-0.061,0.007-0.227,0.012-0.463 c0.02-1.038,0.06-3.199,0.357-4.3c0.412-1.521,1.014-2.115,2.126-2.801c0.416-0.257,0.909-0.461,1.467-0.607l4.248-1.543 c0.272-0.072,0.438-0.226,0.454-0.307c0.013-0.065,0.044-0.298,0.083-1.091c-0.586-0.418-1.062-0.791-1.207-0.934 c-0.969-0.948-1.524-1.817-1.748-2.736c-0.063-0.26-0.079-0.295-0.156-0.353c-0.118-0.088-0.235-0.153-0.347-0.216 c-0.301-0.17-0.642-0.362-0.888-0.821c-0.527-0.984-0.897-2.786-0.897-3.387c0-0.035,0.004-0.071,0.011-0.105 c0.155-0.72,0.829-1.267,1.65-1.349V42.5c0-4.066,3.309-7.375,7.375-7.375h0.125c4.066,0,7.375,3.308,7.375,7.375v2.494 c0.84,0.066,1.535,0.62,1.693,1.353c0.007,0.035,0.011,0.07,0.011,0.105c0,0.674-0.385,2.431-0.897,3.387 c-0.246,0.459-0.587,0.651-0.888,0.821c-0.111,0.063-0.229,0.128-0.347,0.216c-0.077,0.058-0.093,0.093-0.152,0.34 c-0.228,0.931-0.783,1.801-1.751,2.748c-0.149,0.145-0.646,0.555-1.291,1.024c0.005,0.507,0.057,0.803,0.109,0.915 c0.097,0.206,0.237,0.333,0.418,0.379c0.233,0.083,4.543,1.674,5.298,1.993c0.132,0.051,0.257,0.102,0.355,0.144 c0.05,0.018,0.111,0.041,0.156,0.055c1.359,0.41,2.064,1.251,2.359,2.811c0.008,0.057,0.182,2.461,0.304,5.001 c0.014,0.276-0.199,0.51-0.475,0.523C62.145,66.811,62.137,66.811,62.129,66.811z"/></g></svg>