<svg id="Layer_1" data-name="Layer 1" xmlns="http://www.w3.org/2000/svg" viewBox="0 0 1264.2 1405.41"><defs><style>.cls-1{fill:#010101;}.cls-2{fill:#9cd0a8;}.cls-3{fill:#a1d4cc;}.cls-4{fill:#cca0b4;}</style></defs><title>favicon</title><path class="cls-1" d="M123.79-132c-7.89,4.83-15.11,9.24-22.31,13.67q-227.1,139.5-454.19,279c-2.13,1.31-4.28,2.58-6.51,3.71-19.78,10-40.36.79-45.69-20.69-3.64-14.7-6.72-29.53-10-44.31Q-456.28-85.28-497.61-270q-35.49-158.6-70.93-317.21c-5.78-25.85,9.72-44.62,36.27-42.83,34.57,2.32,69.08,5.54,103.62,8.41q56.77,4.74,113.55,9.55,69.72,5.87,139.45,11.69,68,5.69,136,11.35,75.45,6.32,150.91,12.66,62.51,5.24,125,10.4,75,6.27,149.91,12.61,62.51,5.24,125,10.4,69,5.76,138,11.6,7.23.6,14.44,1.23c15.79,1.39,26.83,10,30,23.51,3.16,13.26-2.48,25.92-15.88,34.22-33.84,20.95-67.8,41.7-101.71,62.53L207.81-183.66c-1.56,1-3.08,2-4.65,3,.85,1.73,2.52,2.21,3.86,3Q403-57.17,599,63.28a102.31,102.31,0,0,1,10.38,6.92c12.42,9.91,15.52,26.45,7.59,39.44-8.05,13.18-24.44,18-39,11-6.86-3.34-13.27-7.63-19.79-11.64Q375-3.63,191.76-116.24c-1.4-.87-2.84-1.67-4.84-2.83,2.07,13.74,4.76,26.73,7.66,39.68,25.31,113,66.63,220.27,117.79,323.88,61.81,125.19,137.72,241.39,223.85,351.12,27.88,35.52,57.66,69,92.53,97.83,7.47,6.17,15.35,11.59,24.37,15.42,13.57,5.77,23.13,22.84,21.55,37.46C673,761.93,660.19,773,642.22,774.9c-18.7,1.94-34.81-3.35-48.55-16.25-4.34-4.08-6.54-9.61-10.45-14C491.35,642.23,408.76,532.83,337.43,415.07c-69.33-114.44-127-234.35-168.71-361.66-17.39-53-31.8-106.86-41.26-161.93C126.17-116.06,125.09-123.64,123.79-132ZM-123.13-380.88l1.29.88.3.12,1.56,1c.93.67,1.84,1.39,2.81,2Q11.59-297.74,140.3-218.54c3.44,2.13,5.82,2.17,9.29,0q84.78-52.35,169.74-104.44,123.24-75.69,246.49-151.38c1.28-.78,3-1.21,3.69-3.28L-412.8-559.79l-.38,1.11,268.85,164.86a2.63,2.63,0,0,0,2.16,1.26l-.1-.05,1.82,1.2.11.05a111.25,111.25,0,0,0,16,9.83l0-.07,1.31.81ZM-495.58-538.69c.57,3.17.82,4.94,1.21,6.68q39.86,178.61,79.73,357.2,29,129.59,58,259.17c1.6,7.12,1.62,7.1,7.93,3.23l415-254.95c6.87-4.22,13.69-8.51,21-13.08Z" transform="translate(569.75 630.12)"/><path class="cls-2" d="M-495.58-538.69,87.28-180.44c-7.35,4.57-14.17,8.86-21,13.08l-415,255c-6.31,3.87-6.33,3.89-7.93-3.23q-29-129.58-58-259.17Q-454.52-353.4-494.37-532C-494.76-533.75-495-535.52-495.58-538.69Z" transform="translate(569.75 630.12)"/><path class="cls-3" d="M-144.33-393.82-413.18-558.68l.38-1.11L569.51-477.6c-.67,2.07-2.41,2.5-3.69,3.28Q442.6-398.6,319.33-322.94,234.42-270.79,149.59-218.5c-3.47,2.13-5.85,2.09-9.29,0Q11.63-297.81-117.17-376.88c-1-.6-1.88-1.32-2.82-2l-1.55-1-.3-.12-1.29-.88.12.09a1,1,0,0,0-1.31-.81l0,.07c-3.41-6.44-9.52-8.49-16-9.83l-.11-.05c.11-1.49-.79-1.45-1.82-1.2l.09.05C-142.39-393.84-143.29-393.94-144.33-393.82Z" transform="translate(569.75 630.12)"/><path class="cls-4" d="M-140.34-391.36c6.53,1.34,12.64,3.39,16,9.83A111.25,111.25,0,0,1-140.34-391.36Z" transform="translate(569.75 630.12)"/><path class="cls-4" d="M-144.33-393.82c1-.12,1.94,0,2.15,1.26A2.63,2.63,0,0,1-144.33-393.82Z" transform="translate(569.75 630.12)"/><path class="cls-4" d="M-142.27-392.61c1-.25,1.93-.29,1.82,1.2Z" transform="translate(569.75 630.12)"/><path class="cls-4" d="M-124.32-381.6a1,1,0,0,1,1.31.81Z" transform="translate(569.75 630.12)"/><path class="cls-4" d="M-123.13-380.88l1.29.88Z" transform="translate(569.75 630.12)"/><path class="cls-4" d="M-121.54-379.88l1.55,1Z" transform="translate(569.75 630.12)"/></svg>